<?xml version="1.0" encoding="UTF-8"?>
<svg id="map" xmlns="http://www.w3.org/2000/svg" xmlns:xlink="http://www.w3.org/1999/xlink" viewBox="0 0 2900 480">
  <defs>
    <style>
      .cls-1 {
        stroke: #fff100;
        stroke-width: 1.05px;
      }

      .cls-1, .cls-2, .cls-3, .cls-4, .cls-5, .cls-6, .cls-7, .cls-8, .cls-9, .cls-10, .cls-11, .cls-12 {
        fill: none;
      }

      .cls-1, .cls-3, .cls-4, .cls-5, .cls-6, .cls-7, .cls-8, .cls-9, .cls-10, .cls-11, .cls-12 {
        stroke-miterlimit: 10;
      }

      .cls-13 {
        clip-path: url(#clippath);
      }

      .cls-2, .cls-14, .cls-15, .cls-16, .cls-17, .cls-18, .cls-19 {
        stroke-width: 0px;
      }

      .cls-3, .cls-4 {
        stroke: #c9caca;
        stroke-width: 3.16px;
      }

      .cls-20 {
        clip-path: url(#clippath-1);
      }

      .cls-21 {
        clip-path: url(#clippath-4);
      }

      .cls-22 {
        clip-path: url(#clippath-3);
      }

      .cls-23 {
        clip-path: url(#clippath-2);
      }

      .cls-24 {
        clip-path: url(#clippath-7);
      }

      .cls-25 {
        clip-path: url(#clippath-8);
      }

      .cls-26 {
        clip-path: url(#clippath-6);
      }

      .cls-27 {
        clip-path: url(#clippath-5);
      }

      .cls-28 {
        clip-path: url(#clippath-9);
      }

      .cls-4, .cls-10, .cls-11, .cls-12 {
        stroke-dasharray: 0 0 2.1 2.1;
      }

      .cls-29 {
        clip-path: url(#clippath-20);
      }

      .cls-30 {
        clip-path: url(#clippath-21);
      }

      .cls-31 {
        clip-path: url(#clippath-24);
      }

      .cls-32 {
        clip-path: url(#clippath-23);
      }

      .cls-33 {
        clip-path: url(#clippath-22);
      }

      .cls-34 {
        clip-path: url(#clippath-25);
      }

      .cls-35 {
        clip-path: url(#clippath-27);
      }

      .cls-36 {
        clip-path: url(#clippath-28);
      }

      .cls-37 {
        clip-path: url(#clippath-26);
      }

      .cls-38 {
        clip-path: url(#clippath-29);
      }

      .cls-39 {
        clip-path: url(#clippath-30);
      }

      .cls-40 {
        clip-path: url(#clippath-31);
      }

      .cls-41 {
        clip-path: url(#clippath-14);
      }

      .cls-42 {
        clip-path: url(#clippath-13);
      }

      .cls-43 {
        clip-path: url(#clippath-12);
      }

      .cls-44 {
        clip-path: url(#clippath-10);
      }

      .cls-45 {
        clip-path: url(#clippath-15);
      }

      .cls-46 {
        clip-path: url(#clippath-17);
      }

      .cls-47 {
        clip-path: url(#clippath-16);
      }

      .cls-48 {
        clip-path: url(#clippath-19);
      }

      .cls-49 {
        clip-path: url(#clippath-11);
      }

      .cls-50 {
        clip-path: url(#clippath-18);
      }

      .cls-51 {
        opacity: .8;
      }

      .cls-51, .cls-52, .cls-53, .cls-54 {
        isolation: isolate;
      }

      .cls-5 {
        stroke: #e83828;
        stroke-width: 7.89px;
      }

      .cls-6, .cls-7, .cls-8, .cls-9, .cls-10, .cls-11, .cls-12 {
        stroke-width: 5.26px;
      }

      .cls-6, .cls-10 {
        stroke: #d4cff3;
      }

      .cls-7, .cls-11 {
        stroke: #b3a9eb;
      }

      .cls-8 {
        stroke: #846adc;
      }

      .cls-9, .cls-12 {
        stroke: #9d8ce2;
      }

      .cls-14 {
        fill: #c9caca;
      }

      .cls-15 {
        fill: #e4007f;
      }

      .cls-16 {
        fill: #00a0e9;
      }

      .cls-17 {
        fill: #fff000;
      }

      .cls-18 {
        fill: #fff100;
      }

      .cls-19 {
        fill: #efefef;
      }

      .cls-52 {
        opacity: .45;
      }

      .cls-53 {
        opacity: .6;
      }

      .cls-54 {
        opacity: .5;
      }
    </style>
    <clipPath id="clippath">
      <rect class="cls-2" x="56.15" y="32.27" width="2787.7" height="415.47"/>
    </clipPath>
    <clipPath id="clippath-1">
      <rect class="cls-2" x="982.85" y="189.19" width="856.5" height="253"/>
    </clipPath>
    <clipPath id="clippath-2">
      <rect class="cls-2" x="982.85" y="189.19" width="856.5" height="253"/>
    </clipPath>
    <clipPath id="clippath-3">
      <rect class="cls-2" x="1808.98" y="189.19" width="30.37" height="68.19"/>
    </clipPath>
    <clipPath id="clippath-4">
      <rect class="cls-2" x="1808.98" y="189.19" width="30.37" height="68.19"/>
    </clipPath>
    <clipPath id="clippath-5">
      <rect class="cls-2" x="982.85" y="189.19" width="856.5" height="253"/>
    </clipPath>
    <clipPath id="clippath-6">
      <rect class="cls-2" x="982.85" y="374.01" width="41.98" height="68.19"/>
    </clipPath>
    <clipPath id="clippath-7">
      <rect class="cls-2" x="982.85" y="374.01" width="41.99" height="68.19"/>
    </clipPath>
    <clipPath id="clippath-8">
      <rect class="cls-2" x="56.15" y="32.27" width="2787.7" height="415.47"/>
    </clipPath>
    <clipPath id="clippath-9">
      <rect class="cls-2" x="1402.47" y="348" width="84.7" height="94.2"/>
    </clipPath>
    <clipPath id="clippath-10">
      <rect class="cls-2" x="1402.47" y="348" width="84.7" height="94.2"/>
    </clipPath>
    <clipPath id="clippath-11">
      <rect class="cls-2" x="56.15" y="32.27" width="2787.7" height="415.47"/>
    </clipPath>
    <clipPath id="clippath-12">
      <rect class="cls-2" x="2689.53" y="348" width="34.61" height="94.2"/>
    </clipPath>
    <clipPath id="clippath-13">
      <rect class="cls-2" x="2689.53" y="348" width="34.61" height="94.2"/>
    </clipPath>
    <clipPath id="clippath-14">
      <rect class="cls-2" x="56.15" y="32.27" width="2787.7" height="415.47"/>
    </clipPath>
    <clipPath id="clippath-15">
      <rect class="cls-2" x="527" y="348" width="55.19" height="94.2"/>
    </clipPath>
    <clipPath id="clippath-16">
      <rect class="cls-2" x="527" y="348" width="55.19" height="94.2"/>
    </clipPath>
    <clipPath id="clippath-17">
      <rect class="cls-2" x="56.15" y="32.27" width="2787.7" height="415.47"/>
    </clipPath>
    <clipPath id="clippath-18">
      <rect class="cls-2" x="1790.49" y="166.76" width="35.09" height="90.62"/>
    </clipPath>
    <clipPath id="clippath-19">
      <rect class="cls-2" x="1790.49" y="166.76" width="35.09" height="90.62"/>
    </clipPath>
    <clipPath id="clippath-20">
      <rect class="cls-2" x="56.15" y="32.27" width="2787.7" height="415.47"/>
    </clipPath>
    <clipPath id="clippath-21">
      <rect class="cls-2" x="2536.32" y="257.38" width="46.27" height="90.62"/>
    </clipPath>
    <clipPath id="clippath-22">
      <rect class="cls-2" x="2536.32" y="257.38" width="46.27" height="90.62"/>
    </clipPath>
    <clipPath id="clippath-23">
      <rect class="cls-2" x="56.15" y="32.27" width="2787.7" height="415.47"/>
    </clipPath>
    <clipPath id="clippath-24">
      <rect class="cls-2" x="954.19" y="107.75" width="86.86" height="334.45"/>
    </clipPath>
    <clipPath id="clippath-25">
      <rect class="cls-2" x="954.19" y="107.75" width="86.87" height="334.45"/>
    </clipPath>
    <clipPath id="clippath-26">
      <rect class="cls-2" x="56.15" y="32.27" width="2787.7" height="415.47"/>
    </clipPath>
    <clipPath id="clippath-27">
      <rect class="cls-2" x="193.9" y="99.13" width="2481.1" height="343.06"/>
    </clipPath>
    <clipPath id="clippath-28">
      <rect class="cls-2" x="193.9" y="99.13" width="2481.1" height="343.06"/>
    </clipPath>
    <clipPath id="clippath-29">
      <rect class="cls-2" x="56.15" y="32.27" width="2787.7" height="415.47"/>
    </clipPath>
    <clipPath id="clippath-30">
      <rect class="cls-2" x="56.15" y="189.19" width="2709.84" height="253"/>
    </clipPath>
    <clipPath id="clippath-31">
      <rect class="cls-2" x="56.15" y="189.19" width="2709.84" height="253"/>
    </clipPath>
  </defs>
  <g class="cls-13">
    <g class="cls-54">
      <g class="cls-20">
        <g class="cls-23">
          <g class="cls-52">
            <g class="cls-22">
              <g class="cls-21">
                <rect class="cls-14" x="1808.98" y="189.19" width="30.37" height="68.19"/>
              </g>
            </g>
          </g>
        </g>
        <g class="cls-27">
          <g class="cls-52">
            <g class="cls-26">
              <g class="cls-24">
                <rect class="cls-14" x="982.85" y="374.01" width="41.98" height="68.19"/>
              </g>
            </g>
          </g>
        </g>
      </g>
    </g>
  </g>
  <g class="cls-25">
    <g class="cls-51">
      <g class="cls-28">
        <g class="cls-44">
          <polygon class="cls-15" points="1453.61 348 1453.61 406.8 1402.47 442.2 1415.3 442.2 1462.62 411.34 1487.17 411.34 1487.17 348 1453.61 348"/>
        </g>
      </g>
    </g>
  </g>
  <g class="cls-49">
    <g class="cls-51">
      <g class="cls-43">
        <g class="cls-42">
          <rect class="cls-15" x="2689.53" y="348" width="34.62" height="94.2"/>
        </g>
      </g>
    </g>
  </g>
  <g class="cls-41">
    <g class="cls-51">
      <g class="cls-45">
        <g class="cls-47">
          <polygon class="cls-15" points="582.19 348 547.98 348 527 442.2 561.58 442.2 582.19 348"/>
        </g>
      </g>
    </g>
  </g>
  <g class="cls-46">
    <g class="cls-51">
      <g class="cls-50">
        <g class="cls-48">
          <rect class="cls-15" x="1790.49" y="166.76" width="35.09" height="90.62"/>
        </g>
      </g>
    </g>
  </g>
  <g class="cls-29">
    <g class="cls-51">
      <g class="cls-30">
        <g class="cls-33">
          <polygon class="cls-15" points="2566.69 335.91 2566.69 257.38 2536.32 257.38 2536.32 348 2566.69 348 2582.59 348 2566.69 335.91"/>
        </g>
      </g>
    </g>
  </g>
  <g class="cls-32">
    <g class="cls-53">
      <g class="cls-31">
        <g class="cls-34">
          <path class="cls-16" d="M954.61,112.16c6.2-2.83,9.57-4.42,9.57-4.42,24.85,11.86,51.23,21.64,76.88,29.64l-.12,304.81h-86.75l.42-330.03Z"/>
        </g>
      </g>
    </g>
  </g>
  <g class="cls-37">
    <g class="cls-54">
      <g class="cls-35">
        <g class="cls-36">
          <rect class="cls-14" x="193.9" y="362.65" width="43.07" height="79.55"/>
          <rect class="cls-14" x="743.54" y="279.81" width="41.98" height="68.19"/>
          <rect class="cls-14" x="844.91" y="374.01" width="41.98" height="68.19"/>
          <rect class="cls-14" x="1082.32" y="189.19" width="28.58" height="68.19"/>
          <rect class="cls-14" x="1382.06" y="190.04" width="28.58" height="67.34"/>
          <rect class="cls-14" x="1647.93" y="99.13" width="28.58" height="67.63"/>
          <rect class="cls-14" x="1669.71" y="189.19" width="37.06" height="68.19"/>
          <rect class="cls-14" x="1194.47" y="279.81" width="37.06" height="68.2"/>
          <rect class="cls-14" x="2138.3" y="189.19" width="22.04" height="68.19"/>
          <rect class="cls-14" x="2160.34" y="189.19" width="22.04" height="68.19"/>
          <rect class="cls-14" x="2493.78" y="189.19" width="30.37" height="68.19"/>
          <rect class="cls-14" x="2493.78" y="279.81" width="30.37" height="68.19"/>
          <rect class="cls-14" x="2592.09" y="279.81" width="30.37" height="68.19"/>
          <rect class="cls-14" x="2246.76" y="279.81" width="30.37" height="68.19"/>
          <rect class="cls-14" x="2042.81" y="279.81" width="30.37" height="68.19"/>
          <rect class="cls-14" x="1946.55" y="374.01" width="30.37" height="68.19"/>
          <rect class="cls-14" x="2296.11" y="374.01" width="30.37" height="68.19"/>
          <rect class="cls-14" x="2644.63" y="374.01" width="30.37" height="68.19"/>
          <rect class="cls-14" x="2493.78" y="374.01" width="30.37" height="68.19"/>
          <rect class="cls-14" x="1049.77" y="374.01" width="28.12" height="68.19"/>
          <rect class="cls-14" x="1296.16" y="374.01" width="28.12" height="68.19"/>
          <rect class="cls-14" x="1345.09" y="374.01" width="28.12" height="68.19"/>
          <rect class="cls-14" x="1697.55" y="374.01" width="45.86" height="68.19"/>
          <rect class="cls-14" x="1697.55" y="279.81" width="45.86" height="68.2"/>
          <rect class="cls-14" x="1133.4" y="374.01" width="46.35" height="68.19"/>
        </g>
      </g>
    </g>
    <path class="cls-3" d="M142.52,442.2l.04-193.32c-37.28-6.04-64.37-14.71-80.48-19.63v212.95h80.44Z"/>
    <path class="cls-3" d="M1935.85,257.38h-144.62l-.74-90.62h34.77l.74-66.06c29.23,10.99,70.43,24.98,109.85,33.57,32.62,7.1,62.51,12.31,144.62,14.29,154.74-1.71,250.79-70.28,250.79-70.28,86.66,64.39,205.07,94.23,205.07,94.23v84.88h-455.86"/>
    <polyline class="cls-4" points="2080.46 257.38 2080.46 257.38 1935.85 257.38"/>
    <line class="cls-3" x1="521.77" y1="442.2" x2="521.77" y2="348"/>
    <rect class="cls-3" x="1040.94" y="348" width="290.92" height="94.2"/>
    <polygon class="cls-3" points="886.51 257.61 886.47 348 741.19 348 741.19 442.2 1040.94 442.2 1040.94 374.25 1040.94 348 1040.98 257.61 886.51 257.61"/>
    <path class="cls-3" d="M1331.91,172.94l-.04,86.89v88.17h-290.92l.04-90.39h150.26v-87.9c54.76,6.46,104.44,5.78,140.66,3.24Z"/>
    <rect class="cls-3" x="1331.87" y="257.38" width="154.06" height="184.82"/>
    <rect class="cls-3" x="1485.92" y="348" width="305.31" height="94.2"/>
    <rect class="cls-3" x="1791.23" y="348" width="289.23" height="94.2"/>
    <rect class="cls-3" x="2239.47" y="348" width="143.65" height="94.2"/>
    <rect class="cls-3" x="2383.11" y="348" width="306.42" height="94.2"/>
    <rect class="cls-3" x="1485.92" y="257.38" width="305.31" height="90.62"/>
    <rect class="cls-3" x="2239.47" y="257.38" width="296.86" height="90.62"/>
    <path class="cls-3" d="M2689.53,200.35c-42.13-3.47-92.06-9.77-153.21-27.86v175.5h93.77v-90.62h59.44v-57.03Z"/>
    <rect class="cls-3" x="2630.09" y="257.38" width="59.44" height="90.62"/>
    <path class="cls-3" d="M1633.72,87.09v79.67h156.77s.74,90.62.74,90.62h-459.36l.04-84.44c121.45-9.81,222.24-48.02,301.81-85.85Z"/>
    <path class="cls-3" d="M1826,100.7l-.74,66.06h-191.54v-79.67s61.32-31.54,82.79-49.81c0,0,68.2,48.73,109.49,63.42Z"/>
    <path class="cls-3" d="M142.56,248.88l-.04,10.95v182.36h439.67v-94.19h304.28l.04-90.41h304.73v-87.9s-126.11-13.77-227.06-61.96c0,0-200.29,94.13-352.82,128.01-122.7,27.26-224.28,39.89-468.8,13.12Z"/>
    <line class="cls-4" x1="1453.31" y1="348" x2="1331.87" y2="348"/>
    <rect class="cls-19" x="582.19" y="348" width="159" height="94.2"/>
    <rect class="cls-3" x="582.19" y="348" width="159" height="94.2"/>
    <rect class="cls-19" x="2080.46" y="348" width="159" height="94.2"/>
    <rect class="cls-3" x="2080.46" y="348" width="159" height="94.2"/>
    <rect class="cls-19" x="2080.46" y="257.38" width="159" height="90.62"/>
    <rect class="cls-3" x="2080.46" y="257.38" width="159" height="90.62"/>
    <line class="cls-4" x1="2630.09" y1="257.38" x2="2536.32" y2="257.38"/>
    <path class="cls-4" d="M1791.23,257.38v90.62h289.23v-199.45c-82.11-1.98-111.99-7.18-144.62-14.29l-.37,123.12h-144.62"/>
    <path class="cls-3" d="M2689.53,442.2h70.53v-242.77c-43.76,3.47-70.53.92-70.53.92v241.84Z"/>
    <rect class="cls-6" x="1040.94" y="348" width="290.92" height="94.2"/>
    <polygon class="cls-6" points="886.51 257.61 886.47 348 741.19 348 741.19 442.2 1040.94 442.2 1040.94 374.25 1040.94 348 1040.98 257.61 886.51 257.61"/>
    <path class="cls-7" d="M1331.91,172.94l-.04,86.89v88.17h-290.92l.04-90.39h150.26v-87.9c54.76,6.46,104.44,5.78,140.66,3.24Z"/>
    <rect class="cls-6" x="1331.87" y="257.38" width="154.06" height="184.82"/>
    <rect class="cls-6" x="1485.92" y="348" width="305.31" height="94.2"/>
    <rect class="cls-6" x="1791.23" y="348" width="289.23" height="94.2"/>
    <rect class="cls-6" x="2239.47" y="348" width="143.65" height="94.2"/>
    <rect class="cls-6" x="2383.11" y="348" width="306.42" height="94.2"/>
    <rect class="cls-7" x="1485.92" y="257.38" width="305.31" height="90.62"/>
    <rect class="cls-7" x="2239.47" y="257.38" width="296.86" height="90.62"/>
    <path class="cls-7" d="M2689.53,200.35c-42.13-3.47-92.06-9.77-153.21-27.86v175.5h93.77v-90.62h59.44v-57.03Z"/>
    <rect class="cls-7" x="2630.09" y="257.38" width="59.44" height="90.62"/>
    <path class="cls-9" d="M1633.72,87.09v79.67h156.77s.74,90.62.74,90.62h-459.36l.04-84.44c121.45-9.81,222.24-48.02,301.81-85.85Z"/>
    <line class="cls-10" x1="1453.31" y1="348" x2="1331.87" y2="348"/>
    <line class="cls-11" x1="2630.09" y1="257.38" x2="2536.32" y2="257.38"/>
    <path class="cls-7" d="M1791.23,257.38v90.62h289.23v-199.45c-82.11-1.98-111.99-7.18-144.62-14.29l-.37,123.12h-144.62"/>
    <path class="cls-6" d="M886.89,141.8c-72.3,30.45-182.75,73.35-275.53,93.96-9.83,2.18-19.53,4.27-29.17,6.26l-60.42,10.9c-92.06,13.94-195.13,16.12-379.21-4.03l-.04,10.95v182.36h439.67v-94.19h304.28l.05-116.95"/>
    <path class="cls-7" d="M886.51,257.61h304.73v-87.9s-126.11-13.77-227.06-61.96c0,0-30.74,14.44-77.3,34.05"/>
    <path class="cls-9" d="M1935.85,257.38h-144.62l-.74-90.62h34.77l.74-66.06c29.23,10.99,70.43,24.98,109.85,33.57,32.62,7.1,62.51,12.31,144.62,14.29,154.74-1.71,250.79-70.28,250.79-70.28,86.66,64.39,205.07,94.23,205.07,94.23v84.88h-455.86"/>
    <polyline class="cls-12" points="2080.46 257.38 2080.46 257.38 1935.85 257.38"/>
    <path class="cls-8" d="M1826,100.7l-.74,66.06h-191.54v-79.67s61.32-31.54,82.79-49.81c0,0,68.2,48.73,109.49,63.42Z"/>
    <line class="cls-6" x1="521.77" y1="442.2" x2="521.77" y2="322.2"/>
    <line class="cls-11" x1="1040.94" y1="348" x2="886.47" y2="348"/>
  </g>
  <g class="cls-38">
    <g class="cls-51">
      <g class="cls-39">
        <g class="cls-40">
          <polygon class="cls-5" points="741.19 442.2 741.19 442.2 741.19 374.01 741.19 442.2"/>
          <polygon class="cls-5" points="1040.94 442.2 1040.94 442.2 1040.94 374.01 1040.94 442.2"/>
          <polygon class="cls-5" points="1331.87 442.2 1331.87 442.2 1331.87 374.01 1331.87 442.2"/>
          <polygon class="cls-5" points="1485.92 442.2 1485.92 442.2 1485.92 374.01 1485.92 442.2"/>
          <polygon class="cls-5" points="1331.87 348.01 1331.87 348.01 1331.87 279.82 1331.87 348.01"/>
          <polygon class="cls-5" points="1485.92 348.01 1485.92 348.01 1485.92 279.82 1485.92 348.01"/>
          <polygon class="cls-5" points="1791.23 442.2 1791.23 442.2 1791.23 374.01 1791.23 442.2"/>
          <polygon class="cls-5" points="582.19 442.2 582.19 442.2 582.19 374.01 582.19 442.2"/>
          <polygon class="cls-5" points="62.08 442.2 62.08 442.2 62.08 374.01 62.08 442.2"/>
          <polygon class="cls-5" points="2080.46 257.38 2080.46 257.38 2080.46 189.19 2080.46 257.38"/>
          <polygon class="cls-5" points="1935.85 257.38 1935.85 257.38 1935.85 189.19 1935.85 257.38"/>
          <polygon class="cls-5" points="2760.06 348 2760.06 348 2760.06 279.81 2760.06 348"/>
          <polygon class="cls-5" points="2689.53 348 2689.53 348 2689.53 279.81 2689.53 348"/>
          <polygon class="cls-5" points="2760.06 442.2 2760.06 442.2 2760.06 374.01 2760.06 442.2"/>
          <polygon class="cls-5" points="1041.06 258.22 1041.06 258.22 1041.06 190.04 1041.06 258.22"/>
          <polygon class="cls-5" points="1040.94 348 1040.94 348 1040.94 279.81 1040.94 348"/>
          <polygon class="cls-5" points="1791.23 348 1791.23 348 1791.23 279.81 1791.23 348"/>
          <polygon class="cls-5" points="1935.85 348 1935.85 348 1935.85 279.81 1935.85 348"/>
        </g>
      </g>
    </g>
    <line class="cls-3" x1="2724.15" y1="348" x2="2843.85" y2="348"/>
    <polygon class="cls-17" points="224.53 442.2 272.27 442.2 599.58 360.88 635.71 360.88 743.54 323.61 779.55 323.36 886.89 268.39 976.29 268.39 1034.72 296.86 1065.35 296.86 1181.88 360.76 1236.43 360.2 1334.81 322.67 1374.5 322.66 1481.23 268.26 1520.25 268.26 1640.59 214.1 1668.33 213.73 1751.79 176.79 1791.23 176.79 1908.41 236.78 1940.54 236.33 1996.11 267.47 2035.81 267.47 2035.81 257.61 2001.12 257.61 1944.9 225.62 1914.36 225.62 1799.65 166.76 1743.42 166.76 1663.93 201.67 1637.06 201.71 1511.06 257.38 1475.67 257.38 1368.71 310.56 1331.87 310.56 1233.26 348.01 1184.99 348.01 1071.27 284.96 1040.98 284.96 983 257.61 880.19 257.61 773.04 311.94 737.83 312.24 632.39 348.01 590.19 347.99 224.53 442.2"/>
    <polygon class="cls-17" points="1874.62 442.2 1904.46 442.2 1974.98 403.02 2002.87 403.02 2087.26 361.06 2125.56 361.06 2229.2 330.3 2265.31 330.22 2378.98 269.66 2425.21 269.31 2532.73 307.12 2564.99 307.12 2671.45 361.21 2724.15 361.21 2724.15 348 2677.64 348 2569.33 294.08 2536.32 294.08 2427.54 257.07 2373.87 257.07 2261.94 316.82 2223.32 316.82 2119.97 348 2080.46 348 1996.6 389.87 1967.02 389.99 1874.62 442.2"/>
    <rect class="cls-1" x="59.72" y="343.25" width="2702.34" height="9.49"/>
    <rect class="cls-1" x="59.72" y="437.45" width="2702.34" height="9.49"/>
    <rect class="cls-1" x="482.37" y="252.63" width="2279.69" height="9.49"/>
    <rect class="cls-1" x="1629.92" y="162.01" width="199.88" height="9.49"/>
    <rect class="cls-14" x="933.2" y="279.81" width="41.98" height="68.19"/>
    <rect class="cls-14" x="1791.23" y="279.82" width="144.62" height="68.18"/>
    <polygon class="cls-17" points="224.53 442.2 272.27 442.2 599.58 360.88 635.71 360.88 743.54 323.61 779.55 323.36 886.89 268.39 976.29 268.39 1034.72 296.86 1065.35 296.86 1181.88 360.76 1236.43 360.2 1334.81 322.67 1374.5 322.66 1481.23 268.26 1520.25 268.26 1640.59 214.1 1668.33 213.73 1751.79 176.79 1791.23 176.79 1908.41 236.78 1940.54 236.33 1996.11 267.47 2035.81 267.47 2035.81 257.61 2001.12 257.61 1944.9 225.62 1914.36 225.62 1799.65 166.76 1743.42 166.76 1663.93 201.67 1637.06 201.71 1511.06 257.38 1475.67 257.38 1368.71 310.56 1331.87 310.56 1233.26 348.01 1184.99 348.01 1071.27 284.96 1040.98 284.96 983 257.61 880.19 257.61 773.04 311.94 737.83 312.24 632.39 348.01 590.19 347.99 224.53 442.2"/>
    <polygon class="cls-17" points="1874.62 442.2 1904.46 442.2 1974.98 403.02 2002.87 403.02 2087.26 361.06 2125.56 361.06 2229.2 330.3 2265.31 330.22 2378.98 269.66 2425.21 269.31 2532.73 307.12 2564.99 307.12 2671.45 361.21 2724.15 361.21 2724.15 348 2677.64 348 2569.33 294.08 2536.32 294.08 2427.54 257.07 2373.87 257.07 2261.94 316.82 2223.32 316.82 2119.97 348 2080.46 348 1996.6 389.87 1967.02 389.99 1874.62 442.2"/>
    <rect class="cls-18" x="933.2" y="343.25" width="41.98" height="9.49"/>
    <rect class="cls-18" x="1817.18" y="343.27" width="89.92" height="9.49"/>
  </g>
</svg>
