<?xml version="1.0" encoding="UTF-8"?>
<svg id="_图层_2" data-name="图层 2" xmlns="http://www.w3.org/2000/svg" viewBox="0 0 464.96 464.96">
  <defs>
    <style>
      .cls-1 {
        fill-rule: evenodd;
      }

      .cls-1, .cls-2, .cls-3 {
        stroke-width: 0px;
      }

      .cls-1, .cls-3 {
        fill: #fff;
      }

      .cls-2 {
        fill: #ee7500;
      }
    </style>
  </defs>
  <g id="_图层_1-2" data-name="图层 1">
    <circle class="cls-2" cx="232.48" cy="232.48" r="232.48"/>
    <path class="cls-1" d="M162.23,76.59h140.93v15.8h-140.93v-15.8h0ZM303.16,163.71v-6.91h-17.28v6.91h-44.67v-13.33h61.95v-15.55h-61.95v-13.57h61.95v-15.55h-140.93v15.55h61.95v13.57h-61.95v15.55h61.95v13.33h-61.95v15.8h140.93v-15.8h0ZM303.16,192.84v15.55h-140.93v-15.55h140.93Z"/>
    <g>
      <g>
        <path class="cls-3" d="M97.61,338.03c-.49-.86-1.29-2.09-2.09-3.25v11.9h-3.47v-10.15c-.89.86-1.75,1.66-2.67,2.33-.25-1.07-1.01-3.07-1.44-3.8,2.79-1.84,5.52-5.12,7.21-8.59h-6.41v-3.28h4.69c-.58-1.1-1.5-2.48-2.36-3.5l2.85-1.56c1.1,1.17,2.27,2.76,2.76,3.86l-1.99,1.2h2.24l.64-.15,1.9,1.35c-.8,2.33-1.87,4.6-3.19,6.69,1.17,1.26,3.07,3.47,3.59,4.11l-2.27,2.85ZM112.95,343.64c.8,0,.98-.89,1.07-4.85.83.64,1.96,1.1,2.82,1.32-.31,4.75-.83,6.2-3.93,6.2h-2.09c-2.48,0-3.5-.74-3.5-3.31v-3.74c-1.44,2.85-3.77,5.49-7.55,7.48-.43-.77-1.66-2.15-2.36-2.67,7.79-4.08,8.62-10.15,8.62-14.81v-4.91h3.5v4.97c0,1.9-.18,4.08-.8,6.29h1.93v6.96c0,.83.25,1.07.86,1.07h1.41ZM103.84,335.7h-3.5v-16.26h15.12v16.26h-3.68v-13.13h-7.94v13.13Z"/>
        <path class="cls-3" d="M164.07,343.12c.98,0,1.17-.37,1.29-2.67.7.49,2.21,1.01,3.16,1.23-.37,3.62-1.32,4.54-4.08,4.54h-4.26c-3.65,0-4.51-.98-4.51-3.96v-3.1c-1.17,2.7-4.32,5.52-12.27,7.61-.46-.77-1.56-2.09-2.45-2.82,10.64-2.33,11.53-5.64,11.53-8.07v-2.98h3.8v3.07c0,.8-.09,1.63-.37,2.48h3.4v3.74c0,.8.22.92,1.35.92h3.41ZM144.99,330.03h-3.65v-6.72h4.54c-.61-1.07-1.53-2.36-2.42-3.34l3.16-1.38c1.1,1.2,2.45,2.88,3.01,4.05l-1.44.67h5.31c-.46-1.23-1.35-2.85-2.18-4.14l3.19-1.07c.95,1.32,2.06,3.16,2.51,4.36l-2.33.86h4.29c1.04-1.47,2.15-3.5,2.82-5l3.93,1.17c-.92,1.35-1.9,2.67-2.82,3.83h4.82v6.72h-3.8v9.75h-3.83v-8.16h-11.41v8.01h-3.68v-9.6ZM145.02,326.5v1.99h18.86v-1.99h-18.86Z"/>
        <path class="cls-3" d="M202.19,319.29c-.83,2.15-1.84,4.36-3.01,6.47v20.92h-3.53v-15.49c-.64.8-1.29,1.56-1.93,2.27-.34-.92-1.35-2.91-1.96-3.8,2.76-2.76,5.43-7.09,6.96-11.47l3.47,1.1ZM208.81,330.39c-.25.89-.49,1.75-.74,2.58h8.77l.55-.18,2.54,1.66c-1.93,2.18-4.42,4.82-6.81,7.27,1.2.83,2.24,1.66,2.98,2.33l-2.58,2.76c-1.75-1.78-5.4-4.51-8.44-6.32l2.55-2.21c.86.46,1.72.98,2.58,1.53,1.14-1.17,2.27-2.33,3.28-3.44h-10.31c.55-1.69,1.23-3.74,1.87-5.98h-4.72v-3.37h5.7c.21-.8.43-1.59.64-2.39h-4.6v-3.31h5.4c.25-1.01.46-1.96.67-2.91l3.62.46-.61,2.45h8.04v3.31h-8.86l-.61,2.39h11.07v3.37h-11.99Z"/>
        <path class="cls-3" d="M267.54,328.62c1.57,1.63,3.83,3.16,5.95,4.02-.74.58-1.75,1.78-2.27,2.61l-.15-.09v11.38h-3.37v-1.01h-8.99v1.13h-3.22v-11.5c-.21.12-.43.21-.64.31-.21-.37-.52-.83-.89-1.29-.92.34-1.81.67-2.73,1.01v7.67c0,1.69-.31,2.61-1.23,3.19-.92.58-2.24.71-4.23.67-.09-.89-.49-2.39-.95-3.37,1.13.06,2.18.06,2.54.03.37,0,.52-.12.52-.52v-6.53l-3.1,1.07-.64-3.53c1.07-.31,2.33-.71,3.74-1.1v-5.52h-3.22v-3.37h3.22v-5.77h3.34v5.77h2.76v3.34h-2.76v4.45l2.24-.74.28,1.47c1.99-.89,3.9-2.27,5.22-3.77h-4.76v-2.91h3.04c-.28-.86-.74-1.96-1.14-2.82l2.21-.67c-1.1.06-2.18.09-3.22.12-.09-.77-.49-1.9-.8-2.61,5.31-.21,11.53-.77,15.33-1.53l1.9,2.64c-1.99.37-4.32.67-6.75.92v3.96h1.07c.64-1.29,1.44-2.98,1.87-4.26l3.13.83c-.61,1.2-1.26,2.39-1.81,3.44h3.5v2.91h-5ZM269.63,334.32c-1.78-1.2-3.5-2.79-4.85-4.51v4.05h-3.28v-3.71c-1.26,1.63-2.82,3.07-4.54,4.17h12.67ZM261.5,322.02c-.83.06-1.63.12-2.45.15.46.98,1.04,2.18,1.26,2.94l-1.69.58h2.88v-3.68ZM261.56,336.96h-2.85v1.72h2.85v-1.72ZM258.71,342.97h2.85v-1.78h-2.85v1.78ZM267.69,336.96h-3.13v1.72h3.13v-1.72ZM267.69,342.97v-1.78h-3.13v1.78h3.13Z"/>
        <path class="cls-3" d="M324.61,338.71h-11.9v3.93c0,1.9-.46,2.82-1.9,3.34-1.44.55-3.37.58-5.98.58-.25-1.04-.95-2.58-1.5-3.53,1.96.09,4.23.09,4.85.06.64,0,.8-.15.8-.55v-3.83h-11.68v-3.37h11.68v-1.9c1.17-.46,2.36-1.1,3.47-1.78h-9.66v-3.16h13.83l.74-.18,2.33,1.81c-1.87,1.72-4.35,3.37-6.96,4.63v.58h11.9v3.37ZM301.12,329.63h-3.43v-6.72h4.69c-.55-1.04-1.41-2.24-2.15-3.19l3.1-1.38c1.07,1.2,2.3,2.85,2.82,4.02l-1.17.55h5.15c-.43-1.23-1.23-2.73-1.99-3.93l3.22-1.2c1.01,1.32,2.02,3.19,2.42,4.42l-1.81.71h3.99c.98-1.44,2.02-3.25,2.64-4.63l3.8,1.14c-.83,1.2-1.75,2.39-2.61,3.5h4.48v6.72h-3.59v-3.5h-19.57v3.5Z"/>
        <path class="cls-3" d="M359.54,320.49c-.8,2.58-1.81,5.64-2.67,8.04,1.84,2.39,2.24,4.57,2.24,6.35,0,1.99-.4,3.31-1.38,4.05-.46.37-1.04.55-1.75.67-.55.09-1.26.09-1.96.06,0-.89-.31-2.24-.8-3.13.52.03.98.06,1.32.03.31,0,.58-.06.83-.25.37-.28.52-.95.52-1.84,0-1.47-.37-3.44-2.12-5.61.61-1.84,1.23-4.32,1.72-6.35h-2.45v24.11h-3.19v-27.36h6.78l.52-.15,2.39,1.38ZM373.92,343.22c.46,0,.61-.52.67-3.65.67.58,2.09,1.1,2.98,1.35-.28,4.2-1.14,5.37-3.28,5.37h-2.12c-2.7,0-3.31-1.04-3.31-4.08v-6.26h-2.02c-.46,5.15-1.87,8.71-7.82,10.77-.34-.92-1.29-2.24-2.02-2.94,4.88-1.5,5.98-3.99,6.35-7.82h-3.68v-3.25h17.48v3.25h-4.82v6.29c0,.86.06.98.49.98h1.1ZM361.96,327.7h-2.39v-6.04h7.12c-.34-.98-.8-2.02-1.26-2.91l3.47-.98c.7,1.2,1.41,2.76,1.75,3.9h6.35v6.04h-2.42v2.73h-12.61v-2.73ZM362.94,324.78v2.48h10.55v-2.48h-10.55Z"/>
      </g>
      <g>
        <path class="cls-1" d="M343.79,300.85v-2.72h2.36l-2.17-5.98-.18.36v-4.35h2.54l5.98,15.76h-4.17l-1.09-3.08h-3.26ZM369.87,295.6h-1.63v-.72l4.35-4.71h.54v3.08h3.62v2.35h-3.62v3.98c0,.72,0,1.27.36,1.63.18.18.54.36,1.27.36.18,0,.55,0,.91-.18.36,0,.72-.18,1.09-.36v2.54c-.54.18-1.09.36-1.63.36-.54.18-1.09.18-1.63.18-1.27,0-2.17-.36-2.9-1.09-.54-.72-.72-1.81-.72-3.62v-3.8h0ZM356.29,303.93v-10.69h3.44v2.9c.55-1.09,1.09-1.81,1.63-2.36.55-.36,1.09-.72,1.63-.72.36,0,.72.18,1.09.18.18.18.72.36,1.09.72l-.91,3.08c-.36-.36-.72-.54-.91-.72-.36,0-.54-.18-.91-.18-.54,0-1.27.36-1.63.9-.54.54-.91,1.27-1.09,2.36v4.53h-3.44ZM343.79,288.17v4.35l-2.35,5.62h2.35v2.72h-3.44l-1.27,3.08h-4.16l6.88-15.76h1.99ZM306.48,304.11v-2.54h0c.72,0,1.45-.18,1.81-.72.36-.54.54-1.27.54-2.17s-.18-1.63-.54-2.35c-.54-.54-1.09-.72-1.81-.72h0v-2.54h0c1.81,0,3.26.54,4.35,1.63,1.09.91,1.63,2.35,1.63,3.98s-.54,2.9-1.63,3.8c-1.09,1.09-2.54,1.63-4.35,1.63h0ZM317.71,303.93v-8.33h-1.63v-2.35h1.63v-1.09c0-1.45.36-2.35,1.09-3.08.72-.72,1.81-1.09,3.26-1.09.18,0,.55,0,.72.18h.91v2.54h-1.09c-.55,0-1.09,0-1.27.36-.18.36-.36.91-.36,1.81v.36h1.45v2.35h-1.45v8.33h-3.26ZM306.48,293.06v2.54c-.72,0-1.27.18-1.63.72-.54.72-.72,1.45-.72,2.35s.18,1.63.72,2.17c.36.54.91.72,1.63.72v2.54c-1.63,0-3.08-.54-4.16-1.45-1.09-1.09-1.63-2.35-1.63-3.98s.55-3.08,1.63-3.98c1.09-1.09,2.54-1.63,4.16-1.63h0ZM243.99,304.11v-2.35c.36.18.73.18,1.27.18s1.27-.18,1.99-.36c.72-.18,1.27-.54,1.99-1.09v2.17c-.72.54-1.45.91-2.35,1.09-.72.18-1.63.36-2.54.36h-.36ZM243.99,299.22v-1.63h2.17c-.18-.72-.36-1.27-.72-1.63-.36-.36-.72-.54-1.27-.54h-.18v-2.36h.18c1.63,0,2.9.54,3.81,1.63,1.09,1.09,1.45,2.54,1.45,4.35v.18h-5.44ZM280.58,309h-3.44l3.08-6.88-3.98-8.88h3.62l1.99,5.25,2.35-5.25h3.62l-7.24,15.76h0ZM254.49,303.93v-10.69h3.44v1.45c.36-.54.91-1.09,1.63-1.27.54-.18,1.09-.36,1.81-.36.91,0,1.45.18,1.99.54.54.18.9.72,1.27,1.45.54-.72,1.27-1.27,1.81-1.63.72-.18,1.45-.36,2.17-.36,1.09,0,1.99.36,2.72,1.09.54.72.9,1.63.9,3.08v6.7h-3.44v-6.34c0-.72,0-1.27-.36-1.63-.18-.36-.55-.54-1.09-.54-.36,0-.91.18-1.27.36-.36.36-.73.72-1.09,1.27v6.88h-3.26v-6.34c0-.72-.18-1.27-.36-1.63-.18-.36-.54-.54-1.09-.54s-.91.18-1.27.36c-.54.36-.91.72-1.09,1.27v6.88h-3.44ZM243.99,293.06v2.36c-.54,0-.9.18-1.27.54-.36.36-.54.91-.72,1.63h1.99v1.63h-1.99c0,.91.36,1.45.9,1.99.36.36.72.54,1.09.54v2.35c-1.63,0-2.9-.54-3.8-1.45-1.09-1.09-1.63-2.35-1.63-4.17,0-1.63.55-2.9,1.45-3.98,1.09-.91,2.36-1.45,3.98-1.45h0ZM228.05,304.11v-2.54h.36c.36,0,.72-.18,1.09-.18.18-.18.55-.36.91-.54v-4.53c-.36-.18-.54-.36-.91-.54-.36,0-.72-.18-.9-.18s-.36,0-.55.18v-2.72c.36,0,.73.18.91.18.54.18,1.09.54,1.45.91v-5.98h3.26v15.76h-3.08v-.91c-.54.36-.9.72-1.45.72-.36.18-.72.18-1.09.36ZM228.05,293.06v2.72c-.54,0-1.09.18-1.45.72-.54.54-.72,1.27-.72,2.17,0,.72.18,1.45.72,1.99.36.54.91.72,1.45.91v2.54h-.54c-1.63,0-2.71-.54-3.62-1.45-1.09-1.09-1.45-2.35-1.45-3.98,0-1.81.36-3.08,1.45-4.17.91-.91,1.99-1.45,3.62-1.45h.54ZM212.11,303.75v-1.81h.55c.36-.18.54-.36.9-.54v-2.72c-.54.36-1.09.54-1.45.72v-1.81c.36-.18.91-.36,1.45-.54h0v-.18c0-.54-.18-.91-.54-1.27-.18-.18-.54-.18-.91-.36v-2.17h.55c1.45,0,2.54.36,3.26.91.73.54,1.09,1.45,1.09,2.9v4.71c.18,0,.18.18.36.18s.36-.18.55-.18c0,0,.18,0,.54-.18v1.81c-.54.36-1.09.54-1.63.72-.55.18-.91.18-1.27.18-.54,0-1.09-.18-1.27-.36-.36-.18-.54-.36-.54-.91-.55.54-1.09.72-1.63.91h0ZM212.11,293.06v2.17h-.54c-.72,0-1.27.18-1.99.54-.54.18-1.09.72-1.81,1.27l.18-2.72c.55-.36,1.27-.72,1.99-.91.72-.18,1.45-.36,2.17-.36h0ZM212.11,297.59v1.81c-.36.18-.72.36-.9.36-.36.36-.55.72-.55,1.09s.18.72.36.91c.18.18.54.36.9.36,0,0,0-.18.18-.18v1.81c-.54.18-1.09.36-1.63.36-1.09,0-1.81-.18-2.36-.72-.54-.54-.9-1.27-.9-2.17s.54-1.63,1.27-2.17c.54-.36,1.81-.9,3.62-1.45h0ZM181.32,300.85v-2.72h2.36l-2.17-5.98-.18.36v-4.35h2.54l6.16,15.76h-4.17l-1.09-3.08h-3.44ZM202.88,303.39c-.54.18-1.09.36-1.63.54-.54.18-1.09.18-1.81.18-1.81,0-3.44-.54-4.53-1.45-1.09-1.09-1.63-2.35-1.63-3.98,0-1.81.55-3.08,1.63-4.17,1.09-.91,2.54-1.45,4.53-1.45.54,0,1.09,0,1.63.18.54.18,1.09.36,1.63.54v2.54c-.54-.18-1.09-.36-1.63-.54-.36,0-.91-.18-1.27-.18-.91,0-1.63.36-2.17.91-.54.54-.9,1.27-.9,2.17s.36,1.63.9,2.17c.55.36,1.27.72,2.35.72.36,0,.91,0,1.45-.18.36-.18.91-.36,1.45-.54v2.54ZM181.32,288.17v4.35l-2.17,5.62h2.17v2.72h-3.26l-1.27,3.08h-4.17l6.7-15.76h1.99ZM153.79,303.75v-1.81h.54c.36-.18.72-.36.91-.54v-2.72c-.55.36-.91.54-1.45.72v-1.81c.54-.18.9-.36,1.45-.54h0v-.18c0-.54,0-.91-.36-1.27-.36-.18-.54-.18-1.09-.36v-2.17h.54c1.45,0,2.72.36,3.26.91.72.54,1.09,1.45,1.09,2.9v4.17c0,.18,0,.36.18.54l.18.18c.18,0,.36-.18.54-.18s.36,0,.54-.18v1.81c-.54.36-1.09.54-1.63.72-.36.18-.91.18-1.27.18-.54,0-.91-.18-1.27-.36-.18-.18-.36-.36-.54-.91-.55.54-.91.72-1.45.91h-.18ZM103.26,302.66c-.91.36-1.81.91-2.9,1.09-.9.36-1.99.36-3.08.36-1.27,0-2.36-.18-3.44-.54-.9-.36-1.81-.91-2.54-1.63-.91-.72-1.45-1.63-1.81-2.54-.54-1.09-.72-2.17-.72-3.26,0-2.54.9-4.53,2.54-5.98,1.63-1.45,3.62-2.17,6.34-2.17.91,0,1.99,0,2.9.36.9.18,1.63.36,2.54.91v3.62c-.72-.54-1.63-.91-2.54-1.27-.9-.18-1.81-.36-2.54-.36-1.63,0-2.9.36-3.8,1.27-.91.91-1.45,1.99-1.45,3.62,0,1.45.54,2.54,1.45,3.44.72.91,1.99,1.27,3.44,1.27.91,0,1.81-.18,2.72-.54,1.09-.18,1.99-.72,2.9-1.45v3.8h0ZM153.79,293.06v2.17h-.54c-.54,0-1.27.18-1.81.54-.73.18-1.27.72-1.81,1.27v-2.72c.55-.36,1.27-.72,2.17-.91.54-.18,1.27-.36,1.99-.36h0ZM153.79,297.59v1.81c-.36.18-.54.36-.72.36-.54.36-.72.72-.72,1.09s.18.72.36.91c.18.18.54.36.9.36l.18-.18v1.81c-.54.18-1.09.36-1.63.36-1.09,0-1.81-.18-2.35-.72-.54-.54-.72-1.27-.72-2.17s.36-1.63,1.09-2.17c.72-.36,1.81-.9,3.62-1.45h0ZM133.69,303.93v-10.69h3.26v1.45c.54-.54,1.09-1.09,1.63-1.27.54-.18,1.27-.36,1.99-.36,1.09,0,1.99.36,2.72,1.09.54.72.9,1.63.9,3.08v6.7h-3.44v-6.34c0-.72,0-1.27-.36-1.63-.18-.36-.54-.54-1.09-.54-.36,0-.91.18-1.27.36-.36.36-.73.72-1.09,1.27v6.88h-3.26ZM124.45,289.8c0-.36.18-.91.54-1.27.36-.36.91-.36,1.27-.36.54,0,.9,0,1.27.36.36.36.54.91.54,1.27,0,.54-.18.91-.54,1.27-.36.36-.73.54-1.27.54-.36,0-.91-.18-1.27-.54-.36-.36-.54-.72-.54-1.27h0ZM124.63,303.93v-10.69h3.44v10.69h-3.44ZM108.51,303.93v-15.76h3.26v6.34c.54-.54,1.09-.91,1.63-1.09.73-.18,1.27-.36,1.99-.36,1.27,0,2.17.36,2.72,1.09.54.72.9,1.63.9,3.08v6.7h-3.26v-6.34c0-.72-.18-1.27-.36-1.63-.36-.36-.73-.54-1.27-.54-.36,0-.91.18-1.27.36-.36.36-.73.72-1.09,1.27v6.88h-3.26Z"/>
        <g>
          <path class="cls-1" d="M196.9,249.96c.18,0,1.09.36,1.27.36.54.36,1.27.54,1.63,1.09.54.54.54,1.09.54,1.81,0,.18-.18.54-.18.91-1.09.54-2.35.91-3.44.36-.73-.72-1.09-1.45-1.45-2.54h0c-.36-.72-1.27-1.09-.55-1.99.91,0,1.09-.36,2.17,0Z"/>
          <path class="cls-1" d="M247.61,252.49c.36,1.45-.36,3.26-1.99,3.8-.72,1.27.9,1.27.9,2.9.36-.36,1.27-.91,1.81-1.27.36-.54,1.63.18,1.99-.36,0,0,0-.72.18-.72,0-.18-.18-.36-.18-.36-.18-1.45,1.09-2.35,2.54-3.26.72-.18,1.27,1.45,1.63,1.63.18,0,.36.36.55-.18.72-.36.91-2.17,1.99-2.35,1.63,0,1.09,1.81,2.54,1.99,1.45-.36,1.27.91,1.09,1.63-1.09.54-2.54,1.99-4.17,1.99-.54.18-1.63.36-1.81,1.27,0,.54-.18,1.45.18,1.99.18.54.91.36.91.72,1.09.91,1.99,2.35,1.45,4.17-.36.72,0,1.99-1.27,1.99-2.17.18-1.27-2.17-1.99-1.63-.55,1.45,0,2.72-.36,4.35l.18.18c-.55.91-.72,2.17-.72,3.44-.72.54-.54,1.99-1.63,1.99-.91-.36-1.63-.9-1.81-2.17-.36-.18-.72-1.45-.72-1.63.36-1.09.91-1.99.91-2.9,0-.72.18-1.63-.18-2.35-.72,0-.72,1.09-.9,1.45-.36,1.09-1.27,1.81-1.81,2.54-.36.36-.9.18-1.27,0-.54-.36,0-.91-.36-1.63.73-2.54,2.54-3.98,3.44-6.34.18-.54.9-.54.9-1.27s.72-1.99.36-2.17c-.73-.36-1.99.91-3.08.18-1.27.18-.54,2.17-1.45,2.54-.55,1.27-1.99,1.99-1.27,3.62-.36,2.9-.18,5.25-.54,8.51-.54.54-.72,2.17-1.45,2.17-1.45,0-2.35-2.35-2.54-3.44.72-1.45.36-2.54.72-3.62.36-.54,0-1.27.18-2.17-.18-.36-.18-.72-.36-.72-1.09.54-2.35,2.54-3.8,1.99,0-.18-.72-.91-.36-1.27.72-.36,1.27-1.27,1.81-1.99.36-.36.9-.54,1.45-.91,0-.36.55-.54.72-.91.36-.18.18-.91.73-.91.36-.54,1.27-1.27,1.45-1.99.36-.91,0-1.81.18-2.54,0-1.09-1.45-.72-1.63-1.63-.36-1.09.9-1.09,1.09-1.81.36,0,1.09-.36,1.45-.54.55-1.09-.18-1.63-.36-2.72,0-.54.18-.9.55-1.09,1.27-.18,1.81-.36,2.54.72l1.63,1.09Z"/>
          <path class="cls-1" d="M264.64,251.4c.36.18.9.72,1.27.36.55.36,1.27.54,1.81,1.09-.36,1.09-.36,2.9-1.45,3.26-.54,0-1.27-.18-1.63,0-.55.18-.91.72-1.27,1.09-.55-.18-.91.91-1.63,0-.36-.18.18-.54.18-.91-.18-.18.55-.91.55-1.09.18-.36,0-.54.18-.91,0-.91-1.27-1.09-.9-2.17.36-.72.72-1.27,1.45-1.45.55.18,1.27.18,1.45.72Z"/>
          <path class="cls-1" d="M209.03,253.76s-.36,1.81-.54,2.17c-.55.91-1.81.72-2.54,1.45-.55.18-.73.18-1.09.54-.18.54-.36,1.09,0,1.27,1.45-.18,1.81-.91,2.54-1.09.36,0,.18,1.45.36,1.81-.36.72-.72,1.09-1.81,1.63-.36.18-1.09.36-1.09.72-.54.54-.91,0-.91,1.09,0,.36-.72.72-.36.91l1.81-.54c.73-.36.73-.91,1.81-.72.36.18,1.27-.72,1.27,0-.18.36.36,1.27,0,1.81-.36.54-.91.36-1.27.36l-.55.18c-.9,0-1.45.91-1.99,1.27-.18.18-.55.54-1.09.72-.72.54-1.63.18-1.45.72.18.18.18,1.27.72,1.45.91.18,1.63,0,2.35-.36,1.27-.18,3.26-.72,4.17.18.55.91-1.09,1.99-1.99,2.17-1.27.54-1.81,1.09-3.08,1.63v.36c.18,0-.72,0-.54.18,1.63.72,4.71,1.45,5.98,2.54,1.09.54,2.17,1.27,3.44,1.45,1.09.18,2.72.91,3.63.72,1.63,0,5.61.36,7.79-.18.36.18-.18,1.45-1.45,1.81-.55.91-.72,1.45-1.63,2.17-.72,1.09-2.35.54-3.62.54-1.81-.54-3.98,0-5.62-1.09-1.09,0-2.35-.18-2.72-1.09-.54-.36-.72-.72-1.27-1.09-.72-1.09-1.63-1.99-2.9-2.72-.36-.18-.36-.72-.72-.91-2.54-.91-2.72-2.54-3.08-1.81-.36.91-1.27,2.17-2.17,2.9-.18.54-1.09.72-1.09,1.45-.36.36-1.09.36-1.45.91-.54.72-1.09,1.63-1.99,1.99-1.09.18-1.81.18-2.9.36-.72.18-2.35.18-2.72-.36,0-.36,1.45-.91,1.63-1.27.55-.36,1.27-.54,1.81-.91.36-.54,1.09-1.09,1.45-1.81.18-.18.72-.36.9-.72.72-.36.9-1.27,1.45-1.81.18-.36.18-.72-.18-.91,0,0-.18-.18-.36-.18-.54,0-1.27.54-1.63.54-.91-.18-1.81-.36-1.99-.54-.36-.36.18-1.09.54-1.63.36-.18.72-.91,1.27-.91.72-.54,1.81,0,2.54-.18.72-.18,1.27-.36,1.63-.91-.18-.91.54-1.45-.36-1.99-1.45,0-1.99.72-3.62,0-.36-.36-.91-.91-.54-1.45,1.27-1.27,2.17-.72,3.8-1.27.55-.18,2.54,0,3.26-.72.36-.36.36-.72.18-1.27,0-.18-.36-.36-1.09-.18-1.09.36-2.17,1.09-2.9.91-.18-.36-1.27-.91-1.27-1.27.54-.72,1.45-.91,1.99-1.27.9-.36,3.08-1.09,3.98-1.63.18-.36.36-.91,0-1.45-1.09.72-2.9.36-4.17.91-.9-.91-2.9.91-3.08-.72.72-.91,1.63-1.27,2.9-1.63,1.45-.54,2.36-.91,3.8-1.09.36-.18.73.18,1.27,0,1.27-.54,1.45-1.63,4.16-1.81,1.09-.18,2.17-.91,2.36-.36Z"/>
          <path class="cls-1" d="M270.44,256.66c.72,1.09,1.63,2.54.72,3.8-.72.73-2.35.54-3.44.36-.72.36-1.09,0-1.81.54-.54-.18-1.27,0-1.45.18-.18.91.72.18.72.72.72.36.18,1.63.55,2.17,0,3.44.36,3.98,0,7.07.72,1.09.36,3.98.36,4.89-.36,1.45-.18,2.36-1.63,3.99-.91.36-1.81,1.81-3.08,1.09-.72-.18-.36-1.09-.72-1.63-.36-.36-1.45-.91-1.99-1.09-1.27-.72-4.35,1.27-4.71-.72-.18-.18.54-1.09.72-1.27.9-.54,1.63-.36,2.9,0h2.35c1.45-.36,1.63-2.36,1.99-3.8,0-.36-.18-.91,0-1.09,0-1.99.36-3.44.36-5.25,0-.91,0-1.99.18-2.72v-.54c-.18-.54,0-1.27-.18-1.45-.54,0-1.81,0-2.36.72-.72,0-1.09.18-1.81-.18-.36-.54-1.45-1.63-1.09-2.54,1.09-.91,3.26-.18,4.53-.91,1.09-.18,1.63-1.27,2.72-1.09,1.09,0,1.81-.72,2.9-1.09.55-.36,1.27-1.27,2.36-.91l.91.72Z"/>
          <path class="cls-1" d="M374.4,258.65c-.36-.36-.36-.91-.9-1.09-.54-1.09-1.81-1.45-3.08-1.81-.91-.18-1.81-.18-2.54.54-.72.18-1.45.72-2.17.36.18-.72,1.09-1.27,1.09-1.99h0c-.18-1.27-.36-1.63-1.09-1.81l-1.09-.18-1.45-1.45h-.54v5.43h.54l2.17.36-.18.36c-.54,0-1.45.36-2.54.72v2.35c1.45-.54,2.71-1.09,3.62-1.27.54,0,1.81-.54,2.35-.36.18.18.18.91.18,1.27-.36.54-3.26,1.27-3.26,2.35-.54-.18-1.63-.91-2.54-.54,0,.18-.18.18-.36.18v3.8l1.08-.18c1.09,0,1.27-1.27,2.36-1.45.54-.54-.72-.91-.36-1.45,1.09.54,1.45-.54,2.72-.36,1.09.18,1.99-1.45,2.71-.72,1.45.18,1.99-.72,2.72-1.27.18-1.27,1.09-.72.54-1.81ZM362.63,251.22c-1.27,0-3.44-.18-3.98.54-.36,1.09.54,1.99.9,2.36.91,1.27-.18,2.17-.54,3.62.18.36,1.27.18,1.63,0,.54,0,1.45-.91,1.99-1.09v-5.43h0ZM362.63,258.11v2.35c-.72.18-1.45.54-2.17.54-1.45.36-2.54,0-3.44,0-.55.91.18,2.54-.55,3.62.36.36.72,0,1.09,0,.36-.54,2.17-.91,2.9-1.27h0c.18-.18.72-.54.9-.36.36-.54.91-.72,1.27-.91v3.8l-.18.18c-1.09-.18-2.9.91-3.8.54-.36.36-.72,0-.91-.18-.72.18-1.81-.91-2.17,0-.72.91-1.09,1.27-2.54,1.27-1.45-.36-.91-1.81-2.17-2.72-.54-2.54,2.9-2.9,2.17-5.61-.18-.91.18-1.45.91-1.63.72,0,1.45.54,2.17,1.09.18.18.36.91.55,1.09,1.45.18,3.98-.91,5.98-1.81Z"/>
          <path class="cls-1" d="M321.88,261.37c-1.27-1.45-1.45-1.99-2.36-2.17-.54,0-1.81.18-2.36.36-.18-.18-.72.18-.72.36-.54-.18-2.71.72-2.9.18v-.54l.54-1.63c.36-1.09,1.27-1.27,1.45-1.99.72-3.8,2.36-2.9,3.08-4.35-.18-1.45-1.09-3.98-2.54-4.35-.9-.18-1.63.54-2.35,1.09-.91.72-1.45.36-2.72,1.09-.55.18-1.09,0-1.45.36-.72.54.72,2.54,1.27,2.54.36.36.91-.36,1.63-.18.55.72-2.17.54-3.08,1.63,0,0,0-.18-.18-.18v1.45c.36-.18.55-.18,1.09.18.18.18,1.09-.18,1.27-.18.36.91-1.27.72-2.36,1.09v2.72c.36,0,.73.36.91.54,0,.18.36.91.18,1.27-.18.18-.72.36-1.09.36v2.72h.91c.91-.18,1.45-.72,2.54-.36.72,0,2.72-.72,3.26-.36.36.54,0,.54-.18,1.45.18.73-.36.91-.54,2.17.9.54,1.63,1.09,2.17.91.9-.36,1.63-1.63,2.71-1.63.55-1.45,1.63-.72,1.81-2.17-.18-.36.18-1.99,0-2.35h0ZM309.19,249.05v-1.99q.18,0,.18.18c.18.72.18,1.27-.18,1.81ZM309.19,253.58c-.54-.18-.36-.36-1.09-.72-1.27.18-1.45.18-1.81-.36l.18-.54c.91-.72,2.18-1.63,2.72-2.9v-1.99c-.18-.54-.9-1.63-1.45-1.63-.36,0-.91.72-1.27,1.27-.54.36-1.09,1.81-1.63,2.35-.72,1.27-1.63-.91-3.26.91-.54.18.54,1.81.72,2.35.18,0-.18.54-.18.91-.18.72-.36.36-1.27,1.09-.18.36.18,1.27.54,1.27,1.45,0,2.17-2.35,2.72-2.17.54,0,1.27.54,1.27,1.27,0,.54-.72.72-.9,1.09-.18.36-1.45.36-2.54.36-.18,0-.72.36-.9.54-.36,1.09.72,1.09,1.27,1.81.36.18-1.09,1.27,0,1.45.18.18,1.27-.18,1.81-.18,0,.36.91,1.09,2.54,1.63-.18.36-3.8.54-6.16,1.27-.73.18-.91-.18-.91-.18-.54.36.36-.91-.18-1.09-.18-.18-.91-.54-.72-.72.36-.36-.36-1.81.18-1.27,2.54,1.81,1.99-1.09,1.81-1.63,0-.72-.72.36-1.09.18-.36-.72-.54-.18-.54-.72.72-.18,1.45-.54,1.63-.91,0-.36,0-.72-.36-1.09-.91-1.09-2.17.18-2.35-.18,0-.18-1.27-.54.18-.72,1.45-.54,3.44-1.63,2.54-3.26-.36-.54,0-1.63-.91-1.63-.36.18-1.45,1.63-1.81,1.99-.18.18-.55.54-.91.54-.72,1.45-2.35.36-2.9,1.99-.36.91-.9,1.27.91,1.63.91.18.18,2.9.36,3.44.18.72.36,1.63.36,2.17-.36.72,2.18,1.09,2.18,1.63-.36.36-3.08,1.09-3.62.72-.55-.72-1.09-2.17-2.17-2.35l-1.09,1.09c-.36.54-.18,2.54-.18,3.26,0,.36-.36.72-.54,1.27,0,1.27-1.09,2.17-1.45,3.44,0,.72.36,1.63,1.09,2.17.9,0,1.99-1.09,2.54-1.45.18-1.09,1.45-1.27,1.45-2.35.36-.72.18-2.72.36-3.44l.91-.18c.9.18,1.45.72,2.17.18.36.18,1.09.18,1.09.18,1.45,0,2.54-.36,3.44-.36,1.63-.54,3.62-.54,5.25-.72.72-.54,1.45-.54,1.99-.54v-2.72h-.36s-.72.54-.54-.91c.18-.72-1.99-.91-1.09-3.62.36-.36.91-.72,1.09-.72.54-.18.72-.54.9-.72v-1.45h0ZM309.19,256.11v2.72c-.18-.18-.36-.36-.36-.36-.18-.18-.72-.91-.54-1.27,0-.54.36-.91.9-1.09Z"/>
          <path class="cls-1" d="M348.14,260.82c0-.54.36-1.09.72-1.63,1.27-1.45,3.26-1.81,3.44-3.26v-.36c-.18-.36-.18-.72-.36-1.27-1.09-.54-1.99-1.09-3.08-.91-.91.18-1.81.54-2.9.91v2.9c.36,0,.72-.18,1.09,0v.91c-.36.36-.36,1.45-.91,1.63l-.18.18v1.99c.55.18,1.09,1.45,1.27,1.99,0,.54-.72.36-1.27.18v7.06c.55-.18,1.63-.18,1.81-.54.9-.72,1.27-1.09,2.17-2.35.72-.91.18-2.72.18-4.17-.36-1.27-1.63-1.99-1.99-3.26ZM345.96,254.3c-.91.54-1.99,1.09-2.71,1.81-1.09.54-3.81,1.45-5.07,1.99-.36.36.9,1.45,1.27,1.81.55,0,.91,0,1.27-.36.72-.18.91-.72,1.45-.54,0,1.99-.18,6.52-1.09,7.97.18,1.81-.36,3.08-.72,4.53.18.54-.18.9,0,1.09l-.36.54c0,1.45-.72,2.72-.72,4.17h0l-.18.36c-.18,1.81,0,1.63.18,3.26.18.91.18,2.35,1.27,2.54,2.35.18,2.72-1.81,3.62-3.26,0-1.63,0-1.99-.36-3.62l.18-4.71c.18-.36.18-4.35.55-4.17,0,0,.72.18.72.54-.36.91-.55,2.9.72,2.9h0v-7.06l-.18-.18c.18-.18-.73.18-.73-.18-.54-.36-.18-1.27.73-1.81h.18v-1.99c-.54.91-.91-.54-1.09-.72-.36-.36-.36-.91-.54-1.45.54,0,.36-.36.72-.36.36.18.55,0,.91-.18v-2.9Z"/>
          <path class="cls-1" d="M115.39,250.68c-.55-.18-.55,0-1.45.36h-.36c-.18.36-1.27-.72-1.81-.72-.72-.54-2.54-.18-3.08,0-.55,0-.91.18-1.09.36v5.8c.36-.18.9-.36.9-.18,0,.36-.18.54-.36.72-.18.18-.36.36-.54.36v2.72c1.27.18,2.17.18,3.26-.36.55,0,1.27-.72,1.63-1.09,0-.36.72-1.09.36-1.27-.18-.18-.55-.91-1.27-.72h-1.45c-.36-.18-.55.36-.91,0-.18-2.17,1.81-1.27,2.9-1.81,1.45-.72,1.63-.91,2.17-2.17.18-.54,1.27-.91,1.09-1.99ZM107.61,250.68c-.36.18-.73.18-1.45,0-1.09,0-.73-1.27-1.09-1.81.36-.91-.54-1.45-.36-2.54-.36-.36-.72-1.09-1.09-1.09l-.18-.18-.55-.36-.9.72c-.36.36-.91,1.27-.72,1.99.18,1.63.36,3.08.18,5.07-.18.36-.54.36-1.09.36-.18.18-.54.18-.9.36v2.54h0c.54-.18.72-.72,1.27-.54h.54c.18.54,0,1.45-.36,1.99-.18.36-.91.72-1.27.72l-.18.18v1.45h.36c0,.36-.18.36-.36.54v3.62c.36-.36,1.27-1.09,1.63-.36-.36,1.63.18,3.08-.18,4.53,0,2.35-.18,4.53-.18,6.88-.18,2.35-.18,4.71-.91,6.7.36.54-.18,3.62.72,3.62.9.36,2.17-1.09,3.08-1.45.18-1.09,1.45-1.45,1.45-2.72,0-.54,0-1.27-.18-1.63.9-1.81.18-3.44.54-5.25.18-.72-.18-1.45.18-2.17.18-1.81.36-2.9,0-4.71-.54-1.63-.18-3.98-.18-5.62.18-.91.91-1.27,1.81-1.45h.36v-2.72c-.18.18-.55.18-.55.18-.36,0-.54-.18-.36-.36l.18-.18c.18-.36.18-.18.55-.54h.18v-5.8ZM99.46,253.22c-.36,0-.55.18-.73.18-.54.36-.9,1.27-1.45,1.45-.54.36-.72,1.81-1.45,2.17-.18.18-1.09.54-.91-.18.18-.54-.18-.54,0-.91-.18-1.63.55-3.08-.18-4.17-.36,0-.54-1.09-.9-.54-.36-.36-1.09-.91-1.45-.91,0,.36-.36.36-.18.72l-.36,1.81c.18.36.54.36.18.72,0,.36-.36.91-.36,1.45.18.36-.54.36-1.09,1.09-.72.54-.72,2.35-.72,3.08-.36.54-.18,1.45-.54,1.45v.36c-.18.36-.36.36-.18.72.18,0-.36.36-.54.72,0,.91,0,1.63.36,2.35l1.09.91c.54.36,1.09.18,1.63,0,1.09-.54,1.63-1.63,2.17-2.17l1.09,1.09c1.81.54,2.54-.72,4.17-.91h.36v-3.62c-.55.18-1.27.36-1.27.54-.73.36-1.45.36-2.18.54,0-1.27,1.99-1.63,3.44-1.63v-1.45c-.73.36-2.36-.18-1.99-.36.73-1.09,1.27-1.81,1.99-1.99v-2.54Z"/>
          <path class="cls-1" d="M167.19,264.63v-.91c0-.36-.36-.72-.36-.91-.18-.54-.18-1.27-.36-1.99-.72-.91-.18-1.99-.36-3.26,0-.54-1.27-3.8-.91-3.8.18-1.81-.18-3.8-.72-4.89-.72-.36-1.45-.91-2.35-1.27-.36-.18-.18-.36-1.09-.36-.72-.18-1.45-.18-2.17-.54-.54-.54-1.81-.54-2.35-.54-.18.18-1.09.36-1.63.54v2.72c1.27-.18,2.17-.36,3.44-.54,3.44.54,3.44,1.81,3.44,3.62.18.54,0,1.63.36,2.36-.18.18.18.91,0,1.27.36,1.63.72,2.72.36,4.53-.54-.72-.72-2.35-1.45-2.9-.72,0-1.27-.36-1.99-.54-1.09.36-2.17.36-3.44.72-.18.18.18.54.36.72.91.18,2.18,1.27,2.18,2.17,0,.36,0,1.09-.55,1.27-.36.18.18.54,0,.91,0,.72,0,.54-.54,1.09-.54.18-.72-.18-1.09-.72-.36-.36-.72-1.09-1.09-1.63v9.96c.72-.54.91-1.81,1.45-2.54.91,0,.55.91,1.09,1.27.36.91,1.99.91,2.54,1.63.36.18.55,1.99,1.45.72,1.09-.72-.54-2.54-.36-3.99-.18-1.27-.72-.18-1.27-.18-.91-.36-1.27-.72-1.63-1.81.72-1.45,1.63-2.72.36-4.35,1.45-1.09,2.54,0,3.26.18.36-.18.9-1.27,1.27-.91.54,3.44.9,7.79.18,11.23.54.72-.36.91,0,1.63,0,.36.18,1.63-.18,2.17-.18,1.45-1.09,1.99-2.17,2.72,0,.18-.73.91-1.09.91-.72.72-2.54-.91-3.26,0-.36.72,1.09,1.45,1.81,1.63.54.72,1.63.72,2.36.36.72.18,1.27,0,2.35-.18.72-.18,1.99,0,2.35-.91.91-.36,1.09-1.99,1.45-2.9.73-3.08.18-4.89.55-7.79-.36-.54.18-.91,0-1.27h0c0-.91.18-1.81,0-2.72,0-.36,0-1.45-.18-1.99h0ZM154.88,278.39v-3.44c.36,0,.55-.18.72-.18.54-.36.91.18,1.09.18.36.54.9,1.09,1.45,1.63.18.36.36.91,0,1.45-.36.72-1.99.36-3.26.36h0ZM154.88,257.92v-.91c.18.36.18.54,0,.91ZM154.88,246.7c-.18,0-.18.18-.36.18-.72.36-1.09-.18-1.81.36,0,.18-.73.18-.91.18,0,.18-.18.18-.18.36v2.17c.18-.18.36-.18.54-.18.73-.18,1.63-.36,2.54-.36h.18v-2.72h0ZM151.62,279.66l.18-.18c.72-.18,1.09-.91,1.81-.91.36-.18.91-.18,1.27-.18v-3.44c-.54.36-1.27.72-1.63.36-.36,0-1.09.36-1.63.54v3.8h0ZM151.62,274.41c.72-.36,1.27-.54,1.63-1.09.54-.36,1.09-1.27,1.63-1.63h0v-9.96h0c-.54-.54-.72-1.99-1.45-2.54.18-.54,1.27-.91,1.45-1.27h0v-.91s0-.18-.18-.36c-.36-.54-1.09-1.09-1.45-1.45-.36,0-1.27.36-1.45.18l-.18-.18v6.34c.18.18.18.54.36.72.36,0,.36.54.55.72.18.18.36.54.54.72.54.54.91.36,1.27,1.99-.36.54-.91.72-1.27,1.27-.36.18-.91.36-1.45.54v6.88h0ZM151.62,265.35v-.72c.18.36,0,.54,0,.72h0ZM151.62,264.63v-1.09.36c-.18.18.18.54,0,.72ZM151.62,247.78c-.72.72-1.99,1.09-2.9,1.45-.18.18-.36.18-.55.18l-.36.18c-.91-.18-1.45.36-1.99.72-1.99,1.27-2.54,1.45-3.98,1.99-.36.18-.55.54-.36.91.91.36,2.36.36,3.08-.18.54,0,1.09-.18,1.63.36.18,1.09.54,1.81,1.27,2.17.9.54,1.09.36,1.45,1.45h-.18l.18.18c-.36.72-1.99,1.63-2.54,2.35,0-.18-1.45.91-1.45.72-1.45.18-1.45.54-3.26,0-.36-.54,0-1.45,0-2.17s.72-2.72.18-3.26c-.91-.18-1.45,1.27-1.81,1.63-.18.36-.72.72-.36,1.27-.54.18-.36.91-.54,1.27-.36.54-.18,2.17-.54,2.72-.36.91-.72,1.99-1.27,2.9-.36,1.81-.72,2.72-.72,4.71-.18.91-.36,1.63-.72,2.17-.36,1.27-.54,2.9.36,3.98.18.54.91,1.09,1.09,1.81.73.18.73,1.27,1.81.91.54-.36,1.45-1.45,1.45-2.72.36-1.27-.91-2.9-.55-4.35,0-3.26.91-5.61,1.27-8.69.36-.36.73-.36,1.09-.36l2.36.54c.72.18,0,.54,0,1.09-.18,1.27-1.09.91-1.45,1.81.18.36,1.27,1.81,1.63,1.99,1.45,0,1.27-.91,2.35-1.09.36.72-.55,1.63-.72,2.17-.18,0-.36.18-.36.54q-.91.54-1.99.91c-.54,0-1.27-.36-1.63-.72,0,.18-.72,0-.91.36-.54.72,0,1.09.18,1.81,1.09.54,1.27,1.45,2.17,1.99.73.36,1.27,0,2.18.36.9-.18,2.35-1.45,3.26-1.63.55.54-.9,1.45-1.09,1.99-.54.18-.72.91-1.27,1.09-.54,1.09-2.17.36-2.9.91-.36.72-1.27,1.99-.9,3.08.9,1.27,1.81,1.63,4.89,1.27.55-.72,2.36-.72,3.44-.91v-3.8c-.91.18-1.63.36-1.99-.18.18-.54,1.09-.91,1.99-1.27v-6.88c-.54.18-1.09.36-1.45.72-.18-.72,1.09-1.45,1.27-2.35,0-.18,0-.36.18-.54v-.72h-.18.18v-1.09c-.36-.36-.72-.72-.91-.91-.9,0-1.63.18-1.81-.36,0-.54-.18-.91.36-1.27.72-.54,1.45-.54,1.99.36q.18,0,.36.18v-6.34c-.72-.54-1.27-.91-1.45-1.81-.91-.72-2.36.18-2.9-1.09.54-1.27,1.63-.91,2.54-1.81.72,0,.9-.54,1.45-.36,0,0,.18-.18.36-.18v-2.17Z"/>
          <path class="cls-1" d="M313.54,265.89c.36.91.54,1.45.36,2.17-.73.36-1.09.72-1.99.91-.54.36-2.17,1.09-3.26,1.63-.91.54-1.27.54.54,1.27,1.63-.18,2.9-.36,4.35-.72,1.27.18,2.17-.54,2.9.36.55.36,1.09,1.81.72,2.17,0,.91-1.45.54-1.99.91-1.27.18-2.54-.54-3.99-.54-.54-.18-1.63.36-2.53.36-.91.91-.36,2.36-.18,3.62.18.36,0,.91,0,1.45-.18,1.45-.54,3.08-1.81,3.62-.36.36-.72.73-1.27.73-1.09.54-1.99,0-2.9-.36-.72-.18-1.63-.54-2.17-.91-.72-.36-2.54.18-3.08-.54-.36-.18,0-.54.18-.72.72-.36,2.9-.18,3.81-.36.36.18,1.99-.54,2.35-.54.54-.72.36-1.45.36-2.54.55-.91.72-1.45.55-2.9-1.09-.18-3.98,1.09-4.71.72-1.99,0-2.17.18-3.98-.36,0-.72-1.81-.91-1.08-1.81,0,0,.18,0,.18-.18,1.63-.36,4.35-.18,5.98-.36l2.72-.36c.36-.36-.18-.72-.18-1.45.18,0,.36-.54.54-.54.36-.18,1.45-.18,1.99-.18.72-.18,1.09-.72,1.27-.9.36-.36,1.09-1.45-.18-1.27-.36-.18-3.98.91-4.53.91-.91.72-.18.36-1.27.72-.55-.18-1.99-.36-2.9-.91-.54-.36-.72-.91-.72-1.09.36-.91,1.81-.54,2.54-.72h.18c2.35,0,5.8-1.09,7.61-2.36.73.18,1.63,0,2.17,0,1.27.36,2.72-.18,3.44,1.09Z"/>
          <path class="cls-1" d="M368.6,267.71c.18.36-.54,1.27-1.27,1.81-.91.72-1.63.9-1.99.9-.36.18-2.35,0-2.54.18,0,.18-.18.36.18.54.36.36.91,0,1.09.18.36,0,.91,1.63.91,1.81-.54.36-.18.91-.54,1.45,0,.72-1.09,3.26-.54,3.62,1.81.54,2.53.36,4.16-.54.91.18,3.08.54,3.62,0,1.09-.91.54-3.26,3.08-4.35.72,0,.55.36.72.72-.72,1.63.54,2.17.18,3.26.54.72.72.72,1.27,1.27.36.72.54,1.45-.18,1.99l-1.45.36-1.45.54c-1.09,0-2.36.18-3.44-.18-1.27.18-2.9,0-3.99.36-.9,0-2.72,0-3.44.36-.91,0-1.63-.91-2.54-1.09-.73-1.09,0-3.8.18-5.07l-.18-1.27c-.55.18-1.63,1.45-1.99,1.81,0,.54-.72.54-.72,1.09-.9.72-.54,2.54-1.99,2.9-.9.18-2.17,0-2.9.36-.54-.18-2.72,1.09-2.9.36,0-.54,0-.72.36-1.27l.91-1.27c.36-.18.54-.36.72-.72.73-.91,1.45-.91,1.81-1.81.36-.18,1.09-1.45,1.45-1.63.54-.9,1.81-1.09,1.45-2.17,0-.54-.91-.36-1.27-.18-.36,0-.72.18-.91.36-.54-.18-2.54.72-2.72.18-.54-.91,2.18-2.9,2.72-3.62.36-.18.73-.54,1.27-.72.91.18,1.81-.18,2.72-.36.91-.72,4.35-.54,5.25-1.27,1.27.18,4.35.36,4.89,1.09Z"/>
          <path class="cls-1" d="M210.66,246.51c.18.36,0,.91.36,1.27.18.36.36,1.27,0,1.81-.36.54-1.09.72-1.27,1.09-.72.36-.55.72-1.27,1.09-.55,0-2.17.36-2.72.54h-.36c-1.09.54-1.81,1.27-3.26,1.09-.55.18-.73-.18-.91-.36.91-.72,1.81-1.45,2.72-2.17.36-.72.55-.72.55-1.27.36-.54,1.63-1.63,1.63-2.17q.72-.36.9-.91c.18-.36,0-1.27.72-1.27,0-.36.36-.36.54-.54.9.36,1.81.72,2.35,1.81Z"/>
        </g>
      </g>
      <g>
        <path class="cls-3" d="M97.4,358.64c-.21-.26-.5-.46-.85-.59-.36-.13-.7-.19-1.02-.19-.19,0-.38.02-.58.07s-.39.11-.56.21c-.18.09-.32.22-.43.37-.11.16-.17.34-.17.56,0,.35.13.62.4.81.27.19.6.35,1,.48s.84.27,1.3.4.9.32,1.3.56c.4.24.74.57,1,.98s.4.96.4,1.64-.12,1.22-.36,1.71c-.24.49-.57.89-.99,1.21s-.89.56-1.44.71c-.55.15-1.13.23-1.73.23-.76,0-1.47-.12-2.12-.35-.65-.23-1.26-.61-1.82-1.13l1.84-2.02c.27.35.6.63,1,.82.4.19.82.29,1.25.29.21,0,.42-.02.64-.07.21-.05.41-.12.58-.22.17-.1.31-.23.42-.38.1-.15.16-.34.16-.55,0-.35-.14-.63-.41-.84s-.61-.38-1.02-.52c-.41-.14-.85-.29-1.33-.43-.48-.14-.92-.34-1.33-.58-.41-.24-.75-.56-1.02-.96-.27-.4-.41-.92-.41-1.57s.12-1.18.37-1.66c.25-.48.58-.87.99-1.19.41-.32.89-.56,1.43-.72.54-.16,1.1-.24,1.67-.24.66,0,1.3.09,1.92.28.62.19,1.18.5,1.67.95l-1.77,1.94Z"/>
        <path class="cls-3" d="M106.67,362.06c-.12-.18-.29-.32-.51-.44s-.46-.17-.71-.17c-.63,0-1.12.19-1.47.56-.35.38-.52.87-.52,1.48s.17,1.1.52,1.48c.35.38.84.56,1.47.56.28,0,.51-.06.71-.18.2-.12.37-.26.51-.43l1.64,1.72c-.39.4-.84.68-1.37.84-.53.16-1.02.24-1.5.24-.62,0-1.2-.1-1.75-.3-.55-.2-1.02-.48-1.43-.85-.4-.37-.72-.81-.95-1.33-.23-.52-.35-1.1-.35-1.74s.12-1.22.35-1.74c.23-.52.55-.96.95-1.33.4-.37.88-.65,1.43-.85.55-.2,1.13-.3,1.75-.3.48,0,.98.08,1.5.24.52.16.98.44,1.37.84l-1.64,1.72Z"/>
        <path class="cls-3" d="M112.11,354.98v5.57h.03c.06-.15.15-.31.28-.46s.29-.29.48-.41c.19-.12.41-.22.66-.3.25-.08.53-.12.83-.12.63,0,1.14.1,1.52.29.39.19.69.46.9.8.21.34.36.75.44,1.21.08.46.12.97.12,1.51v4.44h-2.49v-3.95c0-.23,0-.47-.02-.72-.02-.25-.07-.48-.15-.69-.08-.21-.21-.38-.38-.51-.17-.13-.42-.2-.74-.2s-.58.06-.78.17c-.2.12-.35.27-.46.46-.1.19-.17.41-.21.65s-.05.5-.05.76v4.01h-2.49v-12.53h2.49Z"/>
        <path class="cls-3" d="M119.25,363.48c0-.64.12-1.22.35-1.74.23-.52.55-.96.95-1.33.4-.37.88-.65,1.43-.85.55-.2,1.13-.3,1.75-.3s1.2.1,1.75.3c.55.2,1.02.48,1.43.85.4.37.72.82.95,1.33s.35,1.1.35,1.74-.12,1.22-.35,1.74c-.23.52-.55.96-.95,1.33-.4.37-.88.65-1.43.85-.55.2-1.13.3-1.75.3s-1.2-.1-1.75-.3c-.55-.2-1.02-.48-1.43-.85-.4-.37-.72-.81-.95-1.33-.23-.52-.35-1.1-.35-1.74ZM121.74,363.48c0,.61.17,1.1.52,1.48.35.38.84.56,1.47.56s1.12-.19,1.47-.56c.35-.38.52-.87.52-1.48s-.17-1.1-.52-1.48c-.35-.38-.84-.56-1.47-.56s-1.12.19-1.47.56c-.35.38-.52.87-.52,1.48Z"/>
        <path class="cls-3" d="M129.78,363.48c0-.64.12-1.22.35-1.74.23-.52.55-.96.95-1.33.4-.37.88-.65,1.43-.85.55-.2,1.13-.3,1.75-.3s1.2.1,1.75.3c.55.2,1.02.48,1.43.85.4.37.72.82.95,1.33s.35,1.1.35,1.74-.12,1.22-.35,1.74c-.23.52-.55.96-.95,1.33-.4.37-.88.65-1.43.85-.55.2-1.13.3-1.75.3s-1.2-.1-1.75-.3c-.55-.2-1.02-.48-1.43-.85-.4-.37-.72-.81-.95-1.33-.23-.52-.35-1.1-.35-1.74ZM132.26,363.48c0,.61.17,1.1.52,1.48.35.38.84.56,1.47.56s1.12-.19,1.47-.56c.35-.38.52-.87.52-1.48s-.17-1.1-.52-1.48c-.35-.38-.84-.56-1.47-.56s-1.12.19-1.47.56c-.35.38-.52.87-.52,1.48Z"/>
        <path class="cls-3" d="M140.64,354.98h2.49v12.53h-2.49v-12.53Z"/>
        <path class="cls-3" d="M150.35,363.48c0-.64.12-1.22.35-1.74.23-.52.55-.96.95-1.33.4-.37.88-.65,1.43-.85.55-.2,1.13-.3,1.75-.3s1.2.1,1.75.3c.55.2,1.02.48,1.43.85.4.37.72.82.95,1.33s.35,1.1.35,1.74-.12,1.22-.35,1.74c-.23.52-.55.96-.95,1.33-.4.37-.88.65-1.43.85-.55.2-1.13.3-1.75.3s-1.2-.1-1.75-.3c-.55-.2-1.02-.48-1.43-.85-.4-.37-.72-.81-.95-1.33-.23-.52-.35-1.1-.35-1.74ZM152.84,363.48c0,.61.17,1.1.52,1.48.35.38.84.56,1.47.56s1.12-.19,1.47-.56c.35-.38.52-.87.52-1.48s-.17-1.1-.52-1.48c-.35-.38-.84-.56-1.47-.56s-1.12.19-1.47.56c-.35.38-.52.87-.52,1.48Z"/>
        <path class="cls-3" d="M162.04,361.44h-1.64v-1.99h1.64v-1.43c0-.44.04-.86.12-1.25.08-.39.23-.74.45-1.04.22-.3.54-.53.95-.7.41-.17.96-.26,1.63-.26.25,0,.5.01.75.03s.48.06.71.12l-.12,2.1c-.14-.06-.28-.1-.4-.12-.12-.03-.26-.04-.42-.04-.4,0-.7.09-.89.26-.2.17-.3.52-.3,1.05v1.28h1.84v1.99h-1.84v6.07h-2.49v-6.07Z"/>
        <path class="cls-3" d="M181.03,358.82c-.25-.31-.57-.55-.94-.71s-.8-.25-1.28-.25-.94.09-1.35.28c-.41.19-.77.45-1.08.79-.3.34-.54.74-.71,1.2-.17.46-.26.97-.26,1.51s.09,1.06.26,1.52c.17.46.41.86.7,1.19.3.34.65.6,1.05.79s.84.28,1.3.28c.53,0,1-.11,1.41-.33.41-.22.75-.53,1.01-.93l2.15,1.61c-.5.7-1.13,1.21-1.89,1.54-.76.33-1.55.5-2.35.5-.92,0-1.76-.14-2.54-.43-.77-.29-1.44-.7-2.01-1.23-.56-.54-1-1.19-1.32-1.95-.32-.76-.47-1.61-.47-2.55s.16-1.79.47-2.55c.32-.76.75-1.41,1.32-1.95.56-.54,1.23-.95,2.01-1.23.77-.29,1.62-.43,2.54-.43.33,0,.68.03,1.04.09.36.06.71.16,1.06.29.35.13.68.31,1,.53s.61.49.86.81l-1.99,1.62Z"/>
        <path class="cls-3" d="M184.51,363.48c0-.64.12-1.22.35-1.74.23-.52.55-.96.95-1.33.4-.37.88-.65,1.43-.85.55-.2,1.13-.3,1.75-.3s1.2.1,1.75.3c.55.2,1.02.48,1.43.85.4.37.72.82.95,1.33.23.52.35,1.1.35,1.74s-.12,1.22-.35,1.74c-.23.52-.55.96-.95,1.33-.4.37-.88.65-1.43.85-.55.2-1.13.3-1.75.3s-1.2-.1-1.75-.3c-.55-.2-1.02-.48-1.43-.85-.4-.37-.72-.81-.95-1.33-.23-.52-.35-1.1-.35-1.74ZM187,363.48c0,.61.17,1.1.52,1.48.35.38.84.56,1.47.56s1.12-.19,1.47-.56c.35-.38.52-.87.52-1.48s-.17-1.1-.52-1.48c-.35-.38-.84-.56-1.47-.56s-1.12.19-1.47.56c-.35.38-.52.87-.52,1.48Z"/>
        <path class="cls-3" d="M195.34,359.45h2.39v1.09h.03c.08-.15.19-.31.33-.46s.32-.29.51-.41c.2-.12.43-.22.68-.3.25-.08.53-.12.83-.12.56,0,1.06.12,1.5.35.44.23.77.6.99,1.09.29-.52.64-.89,1.04-1.11s.91-.33,1.51-.33c.54,0,1,.09,1.37.27s.66.43.88.75c.21.32.37.69.46,1.11.09.43.14.88.14,1.37v4.76h-2.49v-4.69c0-.38-.08-.7-.24-.97-.16-.27-.45-.41-.85-.41-.29,0-.53.05-.72.14s-.35.22-.46.39c-.12.17-.2.36-.25.58s-.07.45-.07.7v4.26h-2.49v-4.26c0-.14,0-.32-.02-.53s-.05-.41-.12-.6c-.07-.19-.17-.35-.32-.48-.15-.13-.37-.2-.65-.2-.32,0-.58.06-.78.17-.2.12-.35.27-.46.46-.1.19-.17.41-.21.65s-.05.5-.05.76v4.01h-2.49v-8.06Z"/>
        <path class="cls-3" d="M210.17,359.45h2.39v1.09h.03c.08-.15.19-.31.33-.46s.32-.29.51-.41c.2-.12.43-.22.68-.3.25-.08.53-.12.83-.12.56,0,1.06.12,1.5.35.44.23.77.6.99,1.09.29-.52.64-.89,1.04-1.11s.91-.33,1.51-.33c.54,0,1,.09,1.37.27s.66.43.88.75c.21.32.37.69.46,1.11.09.43.14.88.14,1.37v4.76h-2.49v-4.69c0-.38-.08-.7-.24-.97-.16-.27-.45-.41-.85-.41-.29,0-.53.05-.72.14s-.35.22-.46.39c-.12.17-.2.36-.25.58s-.07.45-.07.7v4.26h-2.49v-4.26c0-.14,0-.32-.02-.53s-.05-.41-.12-.6c-.07-.19-.17-.35-.32-.48-.15-.13-.37-.2-.65-.2-.32,0-.58.06-.78.17-.2.12-.35.27-.46.46-.1.19-.17.41-.21.65s-.05.5-.05.76v4.01h-2.49v-8.06Z"/>
        <path class="cls-3" d="M232.77,367.51h-2.39v-1.09h-.03c-.09.15-.2.31-.34.46-.14.16-.31.29-.51.41-.2.12-.43.22-.68.3-.25.08-.53.12-.83.12-.63,0-1.14-.1-1.53-.29-.39-.19-.7-.46-.91-.8-.22-.34-.36-.75-.43-1.21-.07-.46-.11-.97-.11-1.51v-4.44h2.49v3.95c0,.23,0,.47.02.72.02.25.07.48.15.69.08.21.21.38.38.51.17.13.42.2.74.2s.58-.06.78-.17c.2-.12.35-.27.46-.46.11-.19.17-.41.21-.65.03-.24.05-.5.05-.76v-4.01h2.49v8.06Z"/>
        <path class="cls-3" d="M234.94,359.45h2.39v1.09h.03c.08-.15.19-.31.33-.46s.32-.29.51-.41c.2-.12.43-.22.68-.3.25-.08.53-.12.83-.12.63,0,1.14.1,1.52.29.39.19.69.46.9.8.21.34.36.75.44,1.21.08.46.12.97.12,1.51v4.44h-2.49v-3.95c0-.23,0-.47-.02-.72-.02-.25-.07-.48-.15-.69-.08-.21-.21-.38-.38-.51-.17-.13-.42-.2-.74-.2s-.58.06-.78.17c-.2.12-.35.27-.46.46-.1.19-.17.41-.21.65s-.05.5-.05.76v4.01h-2.49v-8.06Z"/>
        <path class="cls-3" d="M255.16,362.06c-.12-.18-.29-.32-.51-.44s-.46-.17-.71-.17c-.63,0-1.12.19-1.47.56-.35.38-.52.87-.52,1.48s.17,1.1.52,1.48c.35.38.84.56,1.47.56.28,0,.51-.06.71-.18.2-.12.37-.26.51-.43l1.64,1.72c-.39.4-.84.68-1.37.84-.53.16-1.02.24-1.5.24-.62,0-1.2-.1-1.75-.3-.55-.2-1.02-.48-1.43-.85-.4-.37-.72-.81-.95-1.33-.23-.52-.35-1.1-.35-1.74s.12-1.22.35-1.74c.23-.52.55-.96.95-1.33.4-.37.88-.65,1.43-.85.55-.2,1.13-.3,1.75-.3.48,0,.98.08,1.5.24.52.16.98.44,1.37.84l-1.64,1.72Z"/>
        <path class="cls-3" d="M263.17,366.5h-.03c-.28.43-.64.74-1.1.93s-.94.28-1.45.28c-.38,0-.74-.05-1.09-.16-.35-.11-.65-.26-.92-.47-.27-.21-.48-.47-.63-.78-.16-.31-.23-.67-.23-1.08,0-.46.09-.86.26-1.18.17-.32.4-.59.7-.8.29-.21.63-.37,1-.49.38-.12.77-.2,1.17-.26.4-.06.81-.09,1.21-.1.4-.01.78-.02,1.12-.02,0-.44-.16-.79-.47-1.05-.32-.26-.69-.39-1.12-.39s-.78.09-1.12.26c-.34.17-.64.41-.9.7l-1.33-1.36c.46-.43,1.01-.75,1.62-.97.62-.22,1.26-.32,1.92-.32.73,0,1.33.09,1.8.27s.85.45,1.13.8.48.79.59,1.3c.11.51.17,1.11.17,1.78v4.09h-2.29v-1.01ZM262.55,363.98c-.19,0-.42,0-.7.03-.28.02-.55.06-.81.14s-.48.19-.66.35-.27.37-.27.65c0,.3.13.52.38.66.25.14.52.22.8.22.24,0,.48-.03.7-.1s.43-.16.61-.28c.18-.12.32-.28.42-.46.1-.19.16-.41.16-.66v-.53h-.61Z"/>
        <path class="cls-3" d="M272.91,361.44h-2.19v2.69c0,.22.01.42.03.61.02.18.07.34.15.47.08.13.2.24.36.31.16.07.37.11.64.11.13,0,.31-.01.52-.04s.38-.09.49-.19v2.07c-.28.1-.56.17-.86.2-.3.03-.59.05-.88.05-.42,0-.81-.04-1.16-.13s-.66-.23-.93-.42c-.27-.19-.47-.44-.62-.75-.15-.31-.22-.69-.22-1.13v-3.83h-1.59v-1.99h1.59v-2.39h2.49v2.39h2.19v1.99Z"/>
        <path class="cls-3" d="M274.42,356.92c0-.4.14-.74.42-1.02.28-.28.62-.42,1.02-.42s.74.14,1.02.42c.28.28.42.62.42,1.02s-.14.74-.42,1.02c-.28.28-.62.42-1.02.42s-.74-.14-1.02-.42c-.28-.28-.42-.62-.42-1.02ZM274.62,359.45h2.49v8.06h-2.49v-8.06Z"/>
        <path class="cls-3" d="M244.72,356.92c0-.4.14-.74.42-1.02.28-.28.62-.42,1.02-.42s.74.14,1.02.42c.28.28.42.62.42,1.02s-.14.74-.42,1.02c-.28.28-.62.42-1.02.42s-.74-.14-1.02-.42c-.28-.28-.42-.62-.42-1.02ZM244.92,359.45h2.49v8.06h-2.49v-8.06Z"/>
        <path class="cls-3" d="M279.02,363.48c0-.64.12-1.22.35-1.74.23-.52.55-.96.95-1.33.4-.37.88-.65,1.43-.85.55-.2,1.13-.3,1.75-.3s1.2.1,1.75.3c.55.2,1.02.48,1.43.85.4.37.72.82.95,1.33s.35,1.1.35,1.74-.12,1.22-.35,1.74c-.23.52-.55.96-.95,1.33-.4.37-.88.65-1.43.85-.55.2-1.13.3-1.75.3s-1.2-.1-1.75-.3c-.55-.2-1.02-.48-1.43-.85-.4-.37-.72-.81-.95-1.33-.23-.52-.35-1.1-.35-1.74ZM281.5,363.48c0,.61.17,1.1.52,1.48.35.38.84.56,1.47.56s1.12-.19,1.47-.56c.35-.38.52-.87.52-1.48s-.17-1.1-.52-1.48c-.35-.38-.84-.56-1.47-.56s-1.12.19-1.47.56c-.35.38-.52.87-.52,1.48Z"/>
        <path class="cls-3" d="M289.84,359.45h2.39v1.09h.03c.08-.15.19-.31.33-.46s.32-.29.51-.41c.2-.12.43-.22.68-.3.25-.08.53-.12.83-.12.63,0,1.14.1,1.52.29.39.19.69.46.9.8.21.34.36.75.44,1.21.08.46.12.97.12,1.51v4.44h-2.49v-3.95c0-.23,0-.47-.02-.72-.02-.25-.07-.48-.15-.69-.08-.21-.21-.38-.38-.51-.17-.13-.42-.2-.74-.2s-.58.06-.78.17c-.2.12-.35.27-.46.46-.1.19-.17.41-.21.65s-.05.5-.05.76v4.01h-2.49v-8.06Z"/>
        <path class="cls-3" d="M314.07,364.74l2.62,2.77h-3.2l-.98-1.11c-.49.5-1.01.86-1.57,1.08-.56.22-1.19.33-1.88.33-.53,0-1.04-.07-1.54-.22s-.94-.36-1.33-.65-.7-.66-.94-1.1c-.23-.44-.35-.96-.35-1.54,0-.38.06-.73.19-1.07.13-.34.3-.64.53-.92.23-.28.49-.52.79-.72.3-.2.62-.37.98-.49-.19-.21-.36-.41-.52-.6-.16-.19-.3-.39-.41-.6s-.2-.43-.27-.66c-.06-.23-.09-.49-.09-.78,0-.53.1-.98.31-1.36.2-.38.48-.69.82-.93.34-.24.74-.42,1.18-.53.44-.11.9-.17,1.36-.17s.88.06,1.29.17c.41.12.77.29,1.09.53.32.24.57.54.75.89.19.36.28.79.28,1.28,0,.35-.06.68-.17.98-.12.3-.27.58-.47.84-.2.26-.43.49-.69.7-.26.2-.54.38-.84.54l1.51,1.61,1.14-1.56h2.88l-2.47,3.28ZM308.94,362.5c-.17.1-.33.2-.49.31-.16.11-.3.22-.43.35-.13.13-.23.27-.31.44-.08.17-.12.36-.12.58s.04.42.13.6c.09.18.2.33.35.45.14.12.31.22.51.29.19.07.39.11.59.11.39,0,.72-.08,1-.25.28-.17.56-.37.84-.61l-2.07-2.25ZM309.73,357.46c-.32,0-.59.1-.81.3-.22.2-.33.46-.33.8,0,.14.03.28.1.42.07.14.15.27.24.4.09.13.2.25.32.36.12.11.22.21.32.3.13-.08.28-.17.43-.27.16-.11.3-.22.43-.35.13-.13.24-.26.33-.41s.13-.31.13-.47c0-.34-.11-.61-.34-.79s-.5-.27-.82-.27Z"/>
        <path class="cls-3" d="M323.72,355.77h3.88c.94,0,1.83.11,2.68.32.85.21,1.58.55,2.21,1.02.63.47,1.13,1.08,1.5,1.83.37.75.56,1.66.56,2.74,0,.95-.18,1.79-.54,2.51s-.84,1.33-1.45,1.82c-.61.49-1.31.86-2.1,1.12-.8.25-1.63.38-2.5.38h-4.23v-11.74ZM326.31,365.12h1.34c.6,0,1.15-.06,1.67-.18.51-.12.96-.32,1.33-.61.38-.28.67-.65.89-1.11.22-.46.32-1.02.32-1.68,0-.57-.11-1.07-.32-1.5-.22-.43-.51-.78-.87-1.05s-.79-.48-1.28-.62c-.49-.14-1.01-.21-1.55-.21h-1.53v6.96Z"/>
        <path class="cls-3" d="M344.03,366.12c-.4.51-.9.9-1.51,1.18-.61.28-1.24.41-1.89.41-.62,0-1.2-.1-1.75-.3-.55-.2-1.02-.48-1.43-.85-.4-.37-.72-.81-.95-1.33-.23-.52-.35-1.1-.35-1.74s.12-1.22.35-1.74c.23-.52.55-.96.95-1.33.4-.37.88-.65,1.43-.85.55-.2,1.13-.3,1.75-.3.57,0,1.1.1,1.57.3.47.2.87.48,1.19.85.33.37.58.82.75,1.33.18.52.27,1.1.27,1.74v.78h-5.77c.1.48.32.85.65,1.14.33.28.74.42,1.23.42.41,0,.75-.09,1.04-.27s.53-.42.74-.7l1.74,1.28ZM341.92,362.57c.01-.42-.13-.78-.41-1.08-.29-.3-.66-.45-1.11-.45-.28,0-.52.04-.73.13-.21.09-.39.2-.54.34-.15.14-.27.3-.35.48s-.13.37-.14.57h3.28Z"/>
        <path class="cls-3" d="M350.89,361.82c-.36-.45-.85-.68-1.44-.68-.21,0-.41.05-.61.15-.2.1-.3.27-.3.51,0,.2.1.35.31.44s.46.18.78.25c.32.07.65.15,1.01.23.36.08.7.21,1.01.39.32.18.57.42.78.72.2.3.31.71.31,1.22s-.11.95-.34,1.28-.52.61-.87.81c-.35.2-.75.35-1.19.43-.44.08-.88.12-1.31.12-.56,0-1.13-.08-1.71-.24-.57-.16-1.06-.44-1.46-.85l1.51-1.67c.23.29.49.51.77.65.28.15.61.22.99.22.29,0,.55-.04.78-.12s.35-.23.35-.46-.1-.37-.31-.47c-.2-.1-.46-.19-.78-.27-.32-.07-.65-.15-1.01-.23-.36-.08-.7-.21-1.01-.37-.32-.17-.57-.4-.78-.7-.2-.3-.31-.71-.31-1.22,0-.47.1-.88.29-1.23s.45-.62.76-.85.68-.38,1.09-.49c.41-.1.82-.16,1.24-.16.53,0,1.07.08,1.61.23s1,.43,1.38.83l-1.52,1.51Z"/>
        <path class="cls-3" d="M354.25,356.92c0-.4.14-.74.42-1.02.28-.28.62-.42,1.02-.42s.74.14,1.02.42c.28.28.42.62.42,1.02s-.14.74-.42,1.02c-.28.28-.62.42-1.02.42s-.74-.14-1.02-.42c-.28-.28-.42-.62-.42-1.02ZM354.45,359.45h2.49v8.06h-2.49v-8.06Z"/>
        <path class="cls-3" d="M367.6,366.83c0,1.52-.38,2.68-1.15,3.47-.77.79-1.94,1.19-3.51,1.19-.72,0-1.43-.08-2.12-.24-.7-.16-1.34-.47-1.92-.94l1.38-2.06c.39.32.79.57,1.22.76.43.19.89.28,1.4.28.76,0,1.32-.19,1.68-.56.36-.37.54-.84.54-1.42v-.78h-.03c-.29.39-.64.66-1.07.82-.43.16-.83.24-1.2.24-.6,0-1.14-.1-1.62-.31-.49-.2-.9-.49-1.25-.86-.35-.37-.62-.81-.8-1.32s-.28-1.07-.28-1.67c0-.53.09-1.05.26-1.56.17-.51.41-.96.73-1.34.32-.39.7-.7,1.15-.94.45-.24.97-.36,1.54-.36.35,0,.68.04.97.12.29.08.55.18.79.3.23.12.43.26.6.41.17.15.3.3.4.44h.03v-1.06h2.29v7.38ZM361.33,363.43c0,.27.05.52.15.75.1.24.24.45.42.63s.39.33.63.44c.24.11.5.17.79.17s.54-.06.78-.17c.24-.11.46-.26.64-.44s.32-.39.42-.63c.1-.24.15-.49.15-.75s-.05-.52-.15-.75c-.1-.24-.24-.45-.42-.63s-.39-.33-.64-.44c-.24-.11-.5-.17-.78-.17s-.55.06-.79.17c-.24.11-.45.26-.63.44s-.32.39-.42.63c-.1.24-.15.49-.15.75Z"/>
        <path class="cls-3" d="M370,359.45h2.39v1.09h.03c.08-.15.19-.31.33-.46s.32-.29.51-.41c.2-.12.43-.22.68-.3.25-.08.53-.12.83-.12.63,0,1.14.1,1.52.29.39.19.69.46.9.8.21.34.36.75.44,1.21.08.46.12.97.12,1.51v4.44h-2.49v-3.95c0-.23,0-.47-.02-.72-.02-.25-.07-.48-.15-.69-.08-.21-.21-.38-.38-.51-.17-.13-.42-.2-.74-.2s-.58.06-.78.17c-.2.12-.35.27-.46.46-.1.19-.17.41-.21.65s-.05.5-.05.76v4.01h-2.49v-8.06Z"/>
      </g>
    </g>
  </g>
</svg>