<?xml version="1.0" encoding="UTF-8"?>
<svg id="_物体热区" data-name="物体热区" xmlns="http://www.w3.org/2000/svg" viewBox="0 0 2450 1536">
  <defs>
    <style>
      .cls-1 {
        stroke-width: 0px;
      }
    </style>
  </defs>
  <g id="_假发" data-name="假发">
    <path class="cls-1" d="M866.98,612.91c-2.07,2.39-3.74,5.19-6.16,6.93-4.7,3.36-4.27,7.01-2.27,11.64,3.32,7.72-1.87,15.14-10.38,15.19-9.84.06-19.78-.86-29.51.19-13.6,1.47-27.14-1.26-40.72.68-7.25,1.03-14.72-1.27-22.11.13-1.75.33-3.7-.1-4.9-1.29-4.55-4.5-9.21-2.39-13.84-.47-3.27,1.36-6.45,1.55-10.04,1.38-7.54-.37-15.19.92-22.68.27-9.5-.82-16.14,1.25-20.52,10.72-3.49,7.54-11.82,8.25-19.32,9.62-8.01,1.46-15.6-1.41-23.43-1.57-5.8-.12-9.3,4.11-6.55,8.94,5.55,9.77,8.63,19.78,6.06,31.16-1.43,6.33-7.61,13.44-13.92,12.68-11.29-1.35-18.79,2.46-23.66,12.64-1.28,2.66-3.92,4.85-7.02,5.92-1.19.41-2.55.58-3.35-.54-.88-1.23.08-2.06.98-3.02,5.75-6.13,12.29-11.6,16.09-19.36,1.19-2.43,3.16-1.84,5.36-1.39,6.13,1.25,12.22,1.76,17.15-4.31-5.77-3.53-10.64-7.67-18.06-3.25-3.56,2.12-8.46,2.02-13.26,3.03,1.45-3.98,4.14-6.3,6-9.14,1.23-1.87,1.78-3.59-.21-4.92-1.89-1.26-4.03-3.49-6.48-1.26-3.67,3.33-3.86,8.24-5.07,12.65-.14.5.76,1.69,1.42,1.95,4.71,1.85-.11,3.52-.4,4.89-.49,2.34-1.71,1.03-2.38-.53-.48-1.12-1.73-.85-2.04-.11-1.42,3.37-6.36,4.01-6.42,8.34-.02,1.48,1.07,1.87,2.27,2.4,2.38,1.05,5.72.28,7.18,3.69-2.33,1.43-3.91-.66-5.75-.96-3.46-.56-6.29-.21-8.45,3.29-2.09,3.4-.12,4.73,1.88,6.88,7.59,8.17,4.99,17.38-5.67,20.84-4.16,1.35-7.49,1.28-12.5-.41,1.93-2.06,4.05-3.08,6.69-3.32,2.73-.25,7.26-.62,7.03-2.83-.3-2.9-.29-6.94-3.21-9.14-5.28-3.96-11.01-6.59-17.85-4.23-.82.28-1.66.49-2.49.75-2.62.81-6.55-.07-6.69,4.19-.13,4.23.5,8.38,5.44,10.07,1.15.39,2.21,1.02,2.64,2.3-6.97,2.05-15.69-6.28-13.71-13.35.69-2.45.29-3.84-1.09-5.99-3.47-5.39-4.07-11.36-.31-17.01,2.85-4.27,4.92-8.56,4.53-13.93-.33-4.62,2.96-6.89,6.89-7.82,3.98-.94,4.92-2.19,1.57-5.14-2.39-2.1-3.86-4.65-4.67-7.86-1.26-4.97-3.24-5.69-7.85-3.63-6.04,2.7-6.81,2.16-8.73-4.26-1.15-3.83-5.77-4.1-8.24-6.88-2.34-2.63-5.89-3.34-9.56-3.06-3.28.24-6.54-.19-9.79-.83-3.05-.6-5.25.53-4.93,4.1.5,5.65,3.03,10.34,7.95,13.17,4.75,2.74,9.77,3.6,14.11-1.3,2.13,6.83,1.15,8.7-5.49,8.65-4.1-.03-4.38,3.17-6.59,6.28-1.91-10.17-11.98-13.62-15.11-22.32-1.63-4.54-3.55-8.66,1.02-12.48.62-.52.91-1.15.29-1.69-.47-.41-1.32-.81-1.84-.67-2.63.72-5.03.76-7.3-1.12-.82-.68-1.96-.43-2.79.48-1.05,1.16-1.13,2.51-.78,3.89.36,1.43,1.16,2.06,2.66,1.17,1.67-.99,2.08.3,2.51,1.48,2.72,7.44,3.23,14.92.45,23.34-2.7-4.82-5.05-8.59-11.28-7.36-2.03.4-4.83-3.12-7.8-5.22,5.11-1.59,8.74.44,12.48,2.07,1.17.51,2.52,1.89,3.75.48,1.17-1.34.48-2.86-.3-4.31-3.76-7-10.95-10.03-18.94-7.88-1.58.42-3.23.82-3.67-1.41-.35-1.82-.07-3.54,2.21-3.97.85-.16,1.73-.11,2.58-.22,2.4-.32,6.37.59,6.12-2.78-.23-3.14-.74-7.26-5.34-8.61-6.96-2.05-9.66-.36-9.97,7.14-1.06-.74-2.24-1.23-2.94-2.11-5.53-6.93-13.41-6.9-21.12-7.03-2.36-.04-3.51-.73-4.17-2.86-.77-2.47-1.53-4.96-2.59-7.31-3.38-7.49-3.26-8.38,2.37-13.81,1.2-1.15,2.05-1.2,2.66.46.45,1.24-.27,2.81,1.34,4.04,2.3-1.31,2.91-3.79,3.06-6.01.09-1.37.24-4.81-3.44-2.39-2.2,1.45-2.99-.1-2.62-2.32.76-4.51,2.3-8.86,2.06-13.57-.11-2.29,1.2-4.31,3.65-5.16,3.68-1.27,4.66-4.26,5.04-7.72.42-3.92,2.35-6.75,6.61-6.13,3.3.48,2.85-2.82,4.85-3.83,3.74-1.88,9.07-1.7,10.72-6.98.25-.8,1.22-.71,2.01.21,2.4,2.77,3.4,2.51,4.55-1,.21-.65.06-1.48.41-2.01,1.2-1.8-2.15-4.26.61-5.52,3.02-1.38,6.43-1.88,9.66-1.1,4.76,1.15,10.47,1.29,10.92,8.37.07,1.19,1.34,2.38,2.23,3.43,1.76,2.08,3.01,3,5.66.21,4.33-4.55,7.45-8.49,2.19-14.3-1.08-1.19.15-2.82,1.26-3.51,4.09-2.52,7.44-6.25,12.34-7.48,4.24-1.06,8.95-1.23,10.1-7.13.41-2.09,2.85-1.59,4.29-.29,2.96,2.68,5.33,1.71,7.44-1.02,1.12-1.45,2.5-2.94,4.29-2.22,4.59,1.84,6.54-.91,8.49-4.18,2.18-3.64,5.56-5.89,9-8.32,4.24-3,9.5-6.16,6.82-13.14-.55-1.42.75-2.4,2.01-2.41,5.42-.05,4.99-4.15,5.63-7.66.42-2.27-1.47-5.21.93-6.72,2.64-1.66,6.07-2.17,9.06-1.21,5,1.6,9.1.58,12.89-2.81,3.45-3.09,8.43-1,12.18-3.51,1.9-1.27,4.36-1.72,6.26-3.75-2.97-2.08-5.68,1.37-8.56-.86,3.43-.92,6.18-2.6,9.52-2.87,2.96-.24,5.74-1.23,8.17-3.03,9.43-7,20.5-10.61,31.66-8.84,9.18,1.45,17.95,1.21,27.01.94,6.1-.18,11.53,3.33,17.19,5.4,1.13.41,2.53,1.45,3.36,1.11,8.85-3.6,15.7,2.94,23.5,4.48,3.16.62,6.4,1.15,9.53,1.65,11.29,1.8,20.76,6.65,28.34,15.03,3.49,3.86,7.6,6.3,12.62,6.1,7.86-.32,14.09,3.23,19.73,7.74,10.07,8.06,17.77,17.83,19.58,31.21.59,4.34,4.96,6.54,6.41,10.49,1.25,3.4,4.34,6.18,1.95,10.53-.93,1.7,1.14,3.06,3.19,2.59,1.31-.3,2.51-1.06,3.76-1.64,4.77-2.2,6.29-1.39,7.46,3.78.34,1.5.89,2.99,1.61,4.35,3.53,6.7,6.89,13.38,7.33,21.21.2,3.54-1.78,5.86-3.41,8.4-1.41,2.2-3.77,4.44-1.19,6.75,2.58,2.31,5.56,5.16,9.68,2.75,1.64-.96,3.27-1.96,4.76-3.13,1.86-1.45,3.15-2.45,3.44,1.16.24,2.92,3.42.26,4.72,1.97ZM651.02,662.14c8.99,5.51,27.75.26,32.4-8.67.7-1.35,1.81-3.04.1-4.16-2.03-1.33-4.21-.36-5.52,1.31-2.96,3.76-7.17,5.05-11.34,6.74-4.92,2-10.62,1.28-15.64,4.78ZM559.53,708.43c3.71.03,7.18-.24,9.91-2.71.9-.81.14-1.95-.62-2.71-2.79-2.77-6.34-2.87-9.71-2-2.72.7-6.52,1.94-6.05,5.27.46,3.27,4.28,1.75,6.48,2.16Z"/>
  </g>
</svg>